{
	"patcher" : 	{
		"fileversion" : 1,
		"appversion" : 		{
			"major" : 8,
			"minor" : 1,
			"revision" : 8,
			"architecture" : "x64",
			"modernui" : 1
		}
,
		"classnamespace" : "box",
		"rect" : [ 47.0, 95.0, 867.0, 779.0 ],
		"bglocked" : 0,
		"openinpresentation" : 0,
		"default_fontsize" : 12.0,
		"default_fontface" : 0,
		"default_fontname" : "Arial",
		"gridonopen" : 1,
		"gridsize" : [ 15.0, 15.0 ],
		"gridsnaponopen" : 1,
		"objectsnaponopen" : 1,
		"statusbarvisible" : 2,
		"toolbarvisible" : 1,
		"lefttoolbarpinned" : 0,
		"toptoolbarpinned" : 0,
		"righttoolbarpinned" : 0,
		"bottomtoolbarpinned" : 0,
		"toolbars_unpinned_last_save" : 0,
		"tallnewobj" : 0,
		"boxanimatetime" : 200,
		"enablehscroll" : 1,
		"enablevscroll" : 1,
		"devicewidth" : 0.0,
		"description" : "",
		"digest" : "",
		"tags" : "",
		"style" : "",
		"subpatcher_template" : "",
		"assistshowspatchername" : 0,
		"boxes" : [ 			{
				"box" : 				{
					"id" : "obj-13",
					"maxclass" : "newobj",
					"numinlets" : 2,
					"numoutlets" : 2,
					"outlettype" : [ "", "" ],
					"patching_rect" : [ 369.0, 695.0, 68.0, 22.0 ],
					"text" : "zl 4096 reg"
				}

			}
, 			{
				"box" : 				{
					"id" : "obj-15",
					"maxclass" : "newobj",
					"numinlets" : 2,
					"numoutlets" : 2,
					"outlettype" : [ "", "" ],
					"patching_rect" : [ 289.666666666666742, 695.0, 68.0, 22.0 ],
					"text" : "zl 4096 reg"
				}

			}
, 			{
				"box" : 				{
					"id" : "obj-14",
					"maxclass" : "newobj",
					"numinlets" : 2,
					"numoutlets" : 2,
					"outlettype" : [ "", "" ],
					"patching_rect" : [ 157.666668000000016, 695.0, 68.0, 22.0 ],
					"text" : "zl 4096 reg"
				}

			}
, 			{
				"box" : 				{
					"id" : "obj-5",
					"maxclass" : "newobj",
					"numinlets" : 2,
					"numoutlets" : 2,
					"outlettype" : [ "", "" ],
					"patching_rect" : [ 59.666668000000016, 94.0, 47.0, 22.0 ],
					"text" : "zl nth 2"
				}

			}
, 			{
				"box" : 				{
					"id" : "obj-3",
					"maxclass" : "newobj",
					"numinlets" : 1,
					"numoutlets" : 4,
					"outlettype" : [ "bang", "", "", "empty" ],
					"patching_rect" : [ 22.666668000000016, 50.0, 818.0, 22.0 ],
					"text" : "t b l l empty"
				}

			}
, 			{
				"box" : 				{
					"id" : "obj-71",
					"maxclass" : "message",
					"numinlets" : 2,
					"numoutlets" : 1,
					"outlettype" : [ "" ],
					"patching_rect" : [ 59.666668000000016, 126.0, 137.0, 22.0 ],
					"text" : "reset 44100, process $1"
				}

			}
, 			{
				"box" : 				{
					"id" : "obj-77",
					"maxclass" : "newobj",
					"numinlets" : 1,
					"numoutlets" : 1,
					"outlettype" : [ "" ],
					"patching_rect" : [ 724.666666666666742, 356.0, 86.0, 22.0 ],
					"text" : "prepend buffer"
				}

			}
, 			{
				"box" : 				{
					"id" : "obj-108",
					"maxclass" : "newobj",
					"numinlets" : 2,
					"numoutlets" : 2,
					"outlettype" : [ "", "" ],
					"patching_rect" : [ 325.166666666666742, 94.0, 37.0, 22.0 ],
					"text" : "zl rev"
				}

			}
, 			{
				"box" : 				{
					"id" : "obj-69",
					"maxclass" : "newobj",
					"numinlets" : 1,
					"numoutlets" : 3,
					"outlettype" : [ "float", "int", "" ],
					"patching_rect" : [ 325.166666666666742, 127.666666666666686, 178.0, 22.0 ],
					"text" : "unpack f i s"
				}

			}
, 			{
				"box" : 				{
					"comment" : "Buffer / FFT Size / Offset (ms)",
					"id" : "obj-36",
					"index" : 0,
					"maxclass" : "inlet",
					"numinlets" : 0,
					"numoutlets" : 1,
					"outlettype" : [ "" ],
					"patching_rect" : [ 22.666668000000016, 10.0, 30.0, 30.0 ]
				}

			}
, 			{
				"box" : 				{
					"id" : "obj-63",
					"maxclass" : "newobj",
					"numinlets" : 2,
					"numoutlets" : 1,
					"outlettype" : [ "" ],
					"patching_rect" : [ 405.666666666666742, 280.0, 38.0, 22.0 ],
					"text" : "fl./~ 2"
				}

			}
, 			{
				"box" : 				{
					"id" : "obj-61",
					"maxclass" : "newobj",
					"numinlets" : 1,
					"numoutlets" : 1,
					"outlettype" : [ "" ],
					"patching_rect" : [ 59.666668000000016, 155.666666666666686, 189.0, 22.0 ],
					"text" : "fl.once~ @id #0peak_single @rt 0"
				}

			}
, 			{
				"box" : 				{
					"id" : "obj-60",
					"maxclass" : "newobj",
					"numinlets" : 1,
					"numoutlets" : 1,
					"outlettype" : [ "" ],
					"patching_rect" : [ 405.666666666666742, 234.0, 72.0, 22.0 ],
					"text" : "fl.frommax~"
				}

			}
, 			{
				"box" : 				{
					"id" : "obj-50",
					"maxclass" : "newobj",
					"numinlets" : 3,
					"numoutlets" : 1,
					"outlettype" : [ "" ],
					"patching_rect" : [ 405.666666666666742, 318.0, 84.0, 22.0 ],
					"text" : "fl.tag~ interval"
				}

			}
, 			{
				"box" : 				{
					"id" : "obj-10",
					"maxclass" : "newobj",
					"numinlets" : 1,
					"numoutlets" : 1,
					"outlettype" : [ "" ],
					"patching_rect" : [ 405.666666666666742, 356.0, 202.0, 22.0 ],
					"text" : "fl.interval~ @id #0peak_single @rt 0"
				}

			}
, 			{
				"box" : 				{
					"id" : "obj-51",
					"maxclass" : "newobj",
					"numinlets" : 3,
					"numoutlets" : 1,
					"outlettype" : [ "" ],
					"patching_rect" : [ 633.5, 356.0, 78.0, 22.0 ],
					"text" : "fl.tag~ length"
				}

			}
, 			{
				"box" : 				{
					"fontface" : 0,
					"fontname" : "Arial",
					"fontsize" : 12.0,
					"id" : "obj-16",
					"maxclass" : "newobj",
					"numinlets" : 3,
					"numoutlets" : 1,
					"outlettype" : [ "" ],
					"patching_rect" : [ 206.666668000000016, 416.0, 177.0, 22.0 ],
					"text" : "fl.source~ 65536 /length 4096"
				}

			}
, 			{
				"box" : 				{
					"comment" : "(list) Freqs / Amps (interlaced)",
					"id" : "obj-19",
					"index" : 0,
					"maxclass" : "outlet",
					"numinlets" : 1,
					"numoutlets" : 0,
					"patching_rect" : [ 157.666668000000016, 731.0, 30.0, 30.0 ]
				}

			}
, 			{
				"box" : 				{
					"id" : "obj-18",
					"maxclass" : "newobj",
					"numinlets" : 2,
					"numoutlets" : 2,
					"outlettype" : [ "", "" ],
					"patching_rect" : [ 206.666668000000016, 638.0, 75.0, 22.0 ],
					"text" : "zl 4096 lace"
				}

			}
, 			{
				"box" : 				{
					"comment" : "(list) Amplitudes",
					"id" : "obj-12",
					"index" : 0,
					"maxclass" : "outlet",
					"numinlets" : 1,
					"numoutlets" : 0,
					"patching_rect" : [ 369.0, 731.0, 30.0, 30.0 ]
				}

			}
, 			{
				"box" : 				{
					"comment" : "(list) Frequencies",
					"id" : "obj-8",
					"index" : 0,
					"maxclass" : "outlet",
					"numinlets" : 1,
					"numoutlets" : 0,
					"patching_rect" : [ 289.666666666666742, 731.0, 30.0, 30.0 ]
				}

			}
, 			{
				"box" : 				{
					"id" : "obj-2",
					"maxclass" : "newobj",
					"numinlets" : 1,
					"numoutlets" : 2,
					"outlettype" : [ "", "" ],
					"patching_rect" : [ 206.666668000000016, 591.0, 75.0, 22.0 ],
					"text" : "fl.tomax~ =2"
				}

			}
, 			{
				"box" : 				{
					"id" : "obj-4",
					"maxclass" : "newobj",
					"numinlets" : 1,
					"numoutlets" : 1,
					"outlettype" : [ "" ],
					"patching_rect" : [ 206.666668000000016, 356.0, 85.0, 22.0 ],
					"text" : "prepend offset"
				}

			}
, 			{
				"box" : 				{
					"id" : "obj-84",
					"maxclass" : "newobj",
					"numinlets" : 1,
					"numoutlets" : 1,
					"outlettype" : [ "" ],
					"patching_rect" : [ 206.666668000000016, 316.333333333333371, 175.0, 22.0 ],
					"text" : "expr round($f1 * 44100 / 1000.)"
				}

			}
, 			{
				"box" : 				{
					"id" : "obj-46",
					"maxclass" : "newobj",
					"numinlets" : 2,
					"numoutlets" : 1,
					"outlettype" : [ "" ],
					"patching_rect" : [ 206.666668000000016, 451.0, 261.0, 22.0 ],
					"text" : "fl.window~ blackman_harris /compensate linear"
				}

			}
, 			{
				"box" : 				{
					"id" : "obj-33",
					"maxclass" : "newobj",
					"numinlets" : 2,
					"numoutlets" : 1,
					"outlettype" : [ "" ],
					"patching_rect" : [ 206.666668000000016, 518.0, 54.0, 22.0 ],
					"text" : "fl.hypot~"
				}

			}
, 			{
				"box" : 				{
					"id" : "obj-31",
					"maxclass" : "newobj",
					"numinlets" : 1,
					"numoutlets" : 2,
					"outlettype" : [ "", "" ],
					"patching_rect" : [ 206.666668000000016, 483.0, 54.0, 22.0 ],
					"text" : "fl.fft~"
				}

			}
, 			{
				"box" : 				{
					"id" : "obj-1",
					"maxclass" : "newobj",
					"numinlets" : 1,
					"numoutlets" : 1,
					"outlettype" : [ "" ],
					"patching_rect" : [ 206.666668000000016, 553.0, 161.0, 22.0 ],
					"text" : "Analysis_Spectral_Peaks #1"
				}

			}
 ],
		"lines" : [ 			{
				"patchline" : 				{
					"destination" : [ "obj-2", 0 ],
					"source" : [ "obj-1", 0 ]
				}

			}
, 			{
				"patchline" : 				{
					"destination" : [ "obj-16", 1 ],
					"midpoints" : [ 415.166666666666742, 388.5, 295.166668000000016, 388.5 ],
					"source" : [ "obj-10", 0 ]
				}

			}
, 			{
				"patchline" : 				{
					"destination" : [ "obj-69", 0 ],
					"source" : [ "obj-108", 0 ]
				}

			}
, 			{
				"patchline" : 				{
					"destination" : [ "obj-12", 0 ],
					"source" : [ "obj-13", 0 ]
				}

			}
, 			{
				"patchline" : 				{
					"destination" : [ "obj-19", 0 ],
					"source" : [ "obj-14", 0 ]
				}

			}
, 			{
				"patchline" : 				{
					"destination" : [ "obj-8", 0 ],
					"source" : [ "obj-15", 0 ]
				}

			}
, 			{
				"patchline" : 				{
					"destination" : [ "obj-46", 0 ],
					"source" : [ "obj-16", 0 ]
				}

			}
, 			{
				"patchline" : 				{
					"destination" : [ "obj-14", 1 ],
					"source" : [ "obj-18", 0 ]
				}

			}
, 			{
				"patchline" : 				{
					"color" : [ 0.131344810128212, 0.999677240848541, 0.023624084889889, 1.0 ],
					"destination" : [ "obj-13", 1 ],
					"midpoints" : [ 272.166668000000016, 622.5, 427.5, 622.5 ],
					"order" : 0,
					"source" : [ "obj-2", 1 ]
				}

			}
, 			{
				"patchline" : 				{
					"color" : [ 0.986246049404144, 0.007120788097382, 0.027434188872576, 1.0 ],
					"destination" : [ "obj-15", 1 ],
					"midpoints" : [ 216.166668000000016, 630.5, 348.166666666666742, 630.5 ],
					"order" : 0,
					"source" : [ "obj-2", 0 ]
				}

			}
, 			{
				"patchline" : 				{
					"color" : [ 0.131344810128212, 0.999677240848541, 0.023624084889889, 1.0 ],
					"destination" : [ "obj-18", 1 ],
					"order" : 1,
					"source" : [ "obj-2", 1 ]
				}

			}
, 			{
				"patchline" : 				{
					"color" : [ 0.986246049404144, 0.007120788097382, 0.027434188872576, 1.0 ],
					"destination" : [ "obj-18", 0 ],
					"order" : 1,
					"source" : [ "obj-2", 0 ]
				}

			}
, 			{
				"patchline" : 				{
					"destination" : [ "obj-108", 0 ],
					"midpoints" : [ 564.833334666666588, 82.5, 334.666666666666742, 82.5 ],
					"source" : [ "obj-3", 2 ]
				}

			}
, 			{
				"patchline" : 				{
					"color" : [ 0.12775145471096, 0.999752759933472, 0.999038398265839, 1.0 ],
					"destination" : [ "obj-13", 1 ],
					"midpoints" : [ 831.166668000000072, 670.5, 427.5, 670.5 ],
					"order" : 0,
					"source" : [ "obj-3", 3 ]
				}

			}
, 			{
				"patchline" : 				{
					"color" : [ 0.986246049404144, 0.007120788097382, 0.027434188872576, 1.0 ],
					"destination" : [ "obj-13", 0 ],
					"midpoints" : [ 32.166668000000016, 680.5, 378.5, 680.5 ],
					"order" : 0,
					"source" : [ "obj-3", 0 ]
				}

			}
, 			{
				"patchline" : 				{
					"color" : [ 0.12775145471096, 0.999752759933472, 0.999038398265839, 1.0 ],
					"destination" : [ "obj-14", 1 ],
					"midpoints" : [ 831.166668000000072, 670.5, 216.166668000000016, 670.5 ],
					"order" : 2,
					"source" : [ "obj-3", 3 ]
				}

			}
, 			{
				"patchline" : 				{
					"color" : [ 0.986246049404144, 0.007120788097382, 0.027434188872576, 1.0 ],
					"destination" : [ "obj-14", 0 ],
					"midpoints" : [ 32.166668000000016, 680.5, 167.166668000000016, 680.5 ],
					"order" : 2,
					"source" : [ "obj-3", 0 ]
				}

			}
, 			{
				"patchline" : 				{
					"color" : [ 0.12775145471096, 0.999752759933472, 0.999038398265839, 1.0 ],
					"destination" : [ "obj-15", 1 ],
					"midpoints" : [ 831.166668000000072, 670.5, 348.166666666666742, 670.5 ],
					"order" : 1,
					"source" : [ "obj-3", 3 ]
				}

			}
, 			{
				"patchline" : 				{
					"color" : [ 0.986246049404144, 0.007120788097382, 0.027434188872576, 1.0 ],
					"destination" : [ "obj-15", 0 ],
					"midpoints" : [ 32.166668000000016, 680.5, 299.166666666666742, 680.5 ],
					"order" : 1,
					"source" : [ "obj-3", 0 ]
				}

			}
, 			{
				"patchline" : 				{
					"destination" : [ "obj-5", 0 ],
					"midpoints" : [ 298.50000133333333, 82.5, 69.166668000000016, 82.5 ],
					"source" : [ "obj-3", 1 ]
				}

			}
, 			{
				"patchline" : 				{
					"destination" : [ "obj-33", 1 ],
					"source" : [ "obj-31", 1 ]
				}

			}
, 			{
				"patchline" : 				{
					"destination" : [ "obj-33", 0 ],
					"source" : [ "obj-31", 0 ]
				}

			}
, 			{
				"patchline" : 				{
					"destination" : [ "obj-1", 0 ],
					"source" : [ "obj-33", 0 ]
				}

			}
, 			{
				"patchline" : 				{
					"destination" : [ "obj-3", 0 ],
					"source" : [ "obj-36", 0 ]
				}

			}
, 			{
				"patchline" : 				{
					"color" : [ 0.131344810128212, 0.999677240848541, 0.023624084889889, 1.0 ],
					"destination" : [ "obj-16", 0 ],
					"source" : [ "obj-4", 0 ]
				}

			}
, 			{
				"patchline" : 				{
					"destination" : [ "obj-31", 0 ],
					"source" : [ "obj-46", 0 ]
				}

			}
, 			{
				"patchline" : 				{
					"destination" : [ "obj-71", 0 ],
					"source" : [ "obj-5", 0 ]
				}

			}
, 			{
				"patchline" : 				{
					"destination" : [ "obj-10", 0 ],
					"source" : [ "obj-50", 0 ]
				}

			}
, 			{
				"patchline" : 				{
					"destination" : [ "obj-16", 2 ],
					"midpoints" : [ 643.0, 400.0, 374.166668000000016, 400.0 ],
					"source" : [ "obj-51", 0 ]
				}

			}
, 			{
				"patchline" : 				{
					"destination" : [ "obj-51", 0 ],
					"midpoints" : [ 415.166666666666742, 269.0, 643.0, 269.0 ],
					"order" : 0,
					"source" : [ "obj-60", 0 ]
				}

			}
, 			{
				"patchline" : 				{
					"destination" : [ "obj-63", 0 ],
					"midpoints" : [ 415.166666666666742, 267.0, 415.166666666666742, 267.0 ],
					"order" : 1,
					"source" : [ "obj-60", 0 ]
				}

			}
, 			{
				"patchline" : 				{
					"color" : [ 0.131344810128212, 0.999677240848541, 0.023624084889889, 1.0 ],
					"destination" : [ "obj-60", 0 ],
					"midpoints" : [ 69.166668000000016, 224.666666666666686, 415.166666666666742, 224.666666666666686 ],
					"source" : [ "obj-61", 0 ]
				}

			}
, 			{
				"patchline" : 				{
					"destination" : [ "obj-50", 0 ],
					"source" : [ "obj-63", 0 ]
				}

			}
, 			{
				"patchline" : 				{
					"destination" : [ "obj-60", 0 ],
					"source" : [ "obj-69", 1 ]
				}

			}
, 			{
				"patchline" : 				{
					"destination" : [ "obj-77", 0 ],
					"midpoints" : [ 493.666666666666742, 185.5, 734.166666666666742, 185.5 ],
					"source" : [ "obj-69", 2 ]
				}

			}
, 			{
				"patchline" : 				{
					"destination" : [ "obj-84", 0 ],
					"midpoints" : [ 334.666666666666742, 274.5, 216.166668000000016, 274.5 ],
					"source" : [ "obj-69", 0 ]
				}

			}
, 			{
				"patchline" : 				{
					"destination" : [ "obj-61", 0 ],
					"source" : [ "obj-71", 0 ]
				}

			}
, 			{
				"patchline" : 				{
					"color" : [ 0.131344810128212, 0.999677240848541, 0.023624084889889, 1.0 ],
					"destination" : [ "obj-16", 0 ],
					"midpoints" : [ 734.166666666666742, 410.0, 216.166668000000016, 410.0 ],
					"source" : [ "obj-77", 0 ]
				}

			}
, 			{
				"patchline" : 				{
					"destination" : [ "obj-4", 0 ],
					"source" : [ "obj-84", 0 ]
				}

			}
 ],
		"dependency_cache" : [ 			{
				"name" : "Analysis_Spectral_Peaks.maxpat",
				"bootpath" : "/Volumes/Projects/Composition/Oboe Piece/Final_Patches",
				"patcherrelativepath" : ".",
				"type" : "JSON",
				"implicit" : 1
			}
, 			{
				"name" : "fl.peaks~.mxo",
				"type" : "iLaX"
			}
, 			{
				"name" : "fl.subframe~.mxo",
				"type" : "iLaX"
			}
, 			{
				"name" : "fl.length~.mxo",
				"type" : "iLaX"
			}
, 			{
				"name" : "fl.divide~.mxo",
				"type" : "iLaX"
			}
, 			{
				"name" : "fl.samplerate~.mxo",
				"type" : "iLaX"
			}
, 			{
				"name" : "fl.pack~.mxo",
				"type" : "iLaX"
			}
, 			{
				"name" : "fl.sortmultiple~.mxo",
				"type" : "iLaX"
			}
, 			{
				"name" : "fl.fft~.mxo",
				"type" : "iLaX"
			}
, 			{
				"name" : "fl.hypot~.mxo",
				"type" : "iLaX"
			}
, 			{
				"name" : "fl.window~.mxo",
				"type" : "iLaX"
			}
, 			{
				"name" : "fl.tomax~.mxo",
				"type" : "iLaX"
			}
, 			{
				"name" : "fl.source~.mxo",
				"type" : "iLaX"
			}
, 			{
				"name" : "fl.source~.mxo",
				"type" : "iLaX"
			}
, 			{
				"name" : "fl.tag~.mxo",
				"type" : "iLaX"
			}
, 			{
				"name" : "fl.interval~.mxo",
				"type" : "iLaX"
			}
, 			{
				"name" : "fl.interval~.mxo",
				"type" : "iLaX"
			}
, 			{
				"name" : "fl.frommax~.mxo",
				"type" : "iLaX"
			}
, 			{
				"name" : "fl.once~.mxo",
				"type" : "iLaX"
			}
, 			{
				"name" : "fl.once~.mxo",
				"type" : "iLaX"
			}
 ],
		"autosave" : 0
	}

}
