{
	"patcher" : 	{
		"fileversion" : 1,
		"appversion" : 		{
			"major" : 8,
			"minor" : 1,
			"revision" : 8,
			"architecture" : "x64",
			"modernui" : 1
		}
,
		"classnamespace" : "box",
		"rect" : [ 449.0, 136.0, 741.0, 605.0 ],
		"bglocked" : 0,
		"openinpresentation" : 0,
		"default_fontsize" : 12.0,
		"default_fontface" : 0,
		"default_fontname" : "Arial",
		"gridonopen" : 1,
		"gridsize" : [ 15.0, 15.0 ],
		"gridsnaponopen" : 1,
		"objectsnaponopen" : 1,
		"statusbarvisible" : 2,
		"toolbarvisible" : 1,
		"lefttoolbarpinned" : 0,
		"toptoolbarpinned" : 0,
		"righttoolbarpinned" : 0,
		"bottomtoolbarpinned" : 0,
		"toolbars_unpinned_last_save" : 0,
		"tallnewobj" : 0,
		"boxanimatetime" : 200,
		"enablehscroll" : 1,
		"enablevscroll" : 1,
		"devicewidth" : 0.0,
		"description" : "",
		"digest" : "",
		"tags" : "",
		"style" : "",
		"subpatcher_template" : "",
		"assistshowspatchername" : 0,
		"boxes" : [ 			{
				"box" : 				{
					"format" : 6,
					"id" : "obj-20",
					"maxclass" : "flonum",
					"numinlets" : 1,
					"numoutlets" : 2,
					"outlettype" : [ "", "bang" ],
					"parameter_enable" : 0,
					"patching_rect" : [ 146.0, 54.0, 50.0, 22.0 ]
				}

			}
, 			{
				"box" : 				{
					"id" : "obj-8",
					"maxclass" : "newobj",
					"numinlets" : 1,
					"numoutlets" : 2,
					"outlettype" : [ "bang", "float" ],
					"patching_rect" : [ 77.0, 15.0, 80.0, 22.0 ],
					"text" : "Offline_Timer"
				}

			}
, 			{
				"box" : 				{
					"id" : "obj-10",
					"maxclass" : "button",
					"numinlets" : 1,
					"numoutlets" : 1,
					"outlettype" : [ "bang" ],
					"parameter_enable" : 0,
					"patching_rect" : [ 24.0, 7.0, 24.0, 24.0 ]
				}

			}
, 			{
				"box" : 				{
					"id" : "obj-5",
					"maxclass" : "newobj",
					"numinlets" : 1,
					"numoutlets" : 1,
					"outlettype" : [ "refresh" ],
					"patcher" : 					{
						"fileversion" : 1,
						"appversion" : 						{
							"major" : 8,
							"minor" : 1,
							"revision" : 8,
							"architecture" : "x64",
							"modernui" : 1
						}
,
						"classnamespace" : "box",
						"rect" : [ 84.0, 129.0, 334.0, 231.0 ],
						"bglocked" : 0,
						"openinpresentation" : 0,
						"default_fontsize" : 12.0,
						"default_fontface" : 0,
						"default_fontname" : "Arial",
						"gridonopen" : 1,
						"gridsize" : [ 15.0, 15.0 ],
						"gridsnaponopen" : 1,
						"objectsnaponopen" : 1,
						"statusbarvisible" : 2,
						"toolbarvisible" : 1,
						"lefttoolbarpinned" : 0,
						"toptoolbarpinned" : 0,
						"righttoolbarpinned" : 0,
						"bottomtoolbarpinned" : 0,
						"toolbars_unpinned_last_save" : 0,
						"tallnewobj" : 0,
						"boxanimatetime" : 200,
						"enablehscroll" : 1,
						"enablevscroll" : 1,
						"devicewidth" : 0.0,
						"description" : "",
						"digest" : "",
						"tags" : "",
						"style" : "",
						"subpatcher_template" : "",
						"assistshowspatchername" : 0,
						"boxes" : [ 							{
								"box" : 								{
									"comment" : "Load",
									"id" : "obj-3",
									"index" : 1,
									"maxclass" : "inlet",
									"numinlets" : 0,
									"numoutlets" : 1,
									"outlettype" : [ "bang" ],
									"patching_rect" : [ 29.0, 18.0, 30.0, 30.0 ]
								}

							}
, 							{
								"box" : 								{
									"id" : "obj-2",
									"maxclass" : "newobj",
									"numinlets" : 1,
									"numoutlets" : 1,
									"outlettype" : [ "refresh" ],
									"patching_rect" : [ 200.0, 160.0, 53.0, 22.0 ],
									"text" : "t refresh"
								}

							}
, 							{
								"box" : 								{
									"id" : "obj-1",
									"maxclass" : "newobj",
									"numinlets" : 0,
									"numoutlets" : 1,
									"outlettype" : [ "" ],
									"patching_rect" : [ 200.0, 127.0, 113.0, 22.0 ],
									"text" : "r __ob__REFRESH"
								}

							}
, 							{
								"box" : 								{
									"id" : "obj-20",
									"maxclass" : "newobj",
									"numinlets" : 2,
									"numoutlets" : 2,
									"outlettype" : [ "", "" ],
									"patching_rect" : [ 77.0, 127.0, 113.0, 22.0 ],
									"text" : "combine s Samples"
								}

							}
, 							{
								"box" : 								{
									"id" : "obj-16",
									"maxclass" : "newobj",
									"numinlets" : 1,
									"numoutlets" : 1,
									"outlettype" : [ "path" ],
									"patching_rect" : [ 29.0, 58.0, 39.0, 22.0 ],
									"text" : "t path"
								}

							}
, 							{
								"box" : 								{
									"id" : "obj-15",
									"maxclass" : "newobj",
									"numinlets" : 1,
									"numoutlets" : 2,
									"outlettype" : [ "", "" ],
									"patching_rect" : [ 29.0, 91.0, 67.0, 22.0 ],
									"save" : [ "#N", "thispatcher", ";", "#Q", "end", ";" ],
									"text" : "thispatcher"
								}

							}
, 							{
								"box" : 								{
									"id" : "obj-8",
									"maxclass" : "newobj",
									"numinlets" : 1,
									"numoutlets" : 1,
									"outlettype" : [ "" ],
									"patching_rect" : [ 77.0, 160.0, 79.0, 22.0 ],
									"text" : "prepend load"
								}

							}
, 							{
								"box" : 								{
									"comment" : "Load Data",
									"id" : "obj-4",
									"index" : 1,
									"maxclass" : "outlet",
									"numinlets" : 1,
									"numoutlets" : 0,
									"patching_rect" : [ 77.0, 196.0, 30.0, 30.0 ]
								}

							}
 ],
						"lines" : [ 							{
								"patchline" : 								{
									"destination" : [ "obj-2", 0 ],
									"source" : [ "obj-1", 0 ]
								}

							}
, 							{
								"patchline" : 								{
									"destination" : [ "obj-20", 0 ],
									"source" : [ "obj-15", 1 ]
								}

							}
, 							{
								"patchline" : 								{
									"destination" : [ "obj-15", 0 ],
									"source" : [ "obj-16", 0 ]
								}

							}
, 							{
								"patchline" : 								{
									"destination" : [ "obj-4", 0 ],
									"midpoints" : [ 209.5, 188.5, 86.5, 188.5 ],
									"source" : [ "obj-2", 0 ]
								}

							}
, 							{
								"patchline" : 								{
									"destination" : [ "obj-8", 0 ],
									"source" : [ "obj-20", 0 ]
								}

							}
, 							{
								"patchline" : 								{
									"destination" : [ "obj-16", 0 ],
									"source" : [ "obj-3", 0 ]
								}

							}
, 							{
								"patchline" : 								{
									"destination" : [ "obj-4", 0 ],
									"source" : [ "obj-8", 0 ]
								}

							}
 ]
					}
,
					"patching_rect" : [ 24.0, 53.0, 71.0, 22.0 ],
					"saved_object_attributes" : 					{
						"description" : "",
						"digest" : "",
						"globalpatchername" : "",
						"tags" : ""
					}
,
					"text" : "p LoadData"
				}

			}
, 			{
				"box" : 				{
					"id" : "obj-7",
					"maxclass" : "newobj",
					"numinlets" : 1,
					"numoutlets" : 0,
					"patching_rect" : [ 24.0, 88.0, 54.0, 22.0 ],
					"text" : "Data_All"
				}

			}
, 			{
				"box" : 				{
					"id" : "obj-19",
					"maxclass" : "button",
					"numinlets" : 1,
					"numoutlets" : 1,
					"outlettype" : [ "bang" ],
					"parameter_enable" : 0,
					"patching_rect" : [ 477.666666500000019, 465.0, 38.0, 38.0 ]
				}

			}
, 			{
				"box" : 				{
					"id" : "obj-16",
					"maxclass" : "newobj",
					"numinlets" : 1,
					"numoutlets" : 0,
					"patching_rect" : [ 477.666666500000019, 516.0, 115.0, 22.0 ],
					"text" : "s __ob__REFRESH"
				}

			}
, 			{
				"box" : 				{
					"id" : "obj-18",
					"maxclass" : "newobj",
					"numinlets" : 2,
					"numoutlets" : 1,
					"outlettype" : [ "" ],
					"patcher" : 					{
						"fileversion" : 1,
						"appversion" : 						{
							"major" : 8,
							"minor" : 1,
							"revision" : 8,
							"architecture" : "x64",
							"modernui" : 1
						}
,
						"classnamespace" : "box",
						"rect" : [ 59.0, 104.0, 607.0, 514.0 ],
						"bglocked" : 0,
						"openinpresentation" : 0,
						"default_fontsize" : 12.0,
						"default_fontface" : 0,
						"default_fontname" : "Arial",
						"gridonopen" : 1,
						"gridsize" : [ 15.0, 15.0 ],
						"gridsnaponopen" : 1,
						"objectsnaponopen" : 1,
						"statusbarvisible" : 2,
						"toolbarvisible" : 1,
						"lefttoolbarpinned" : 0,
						"toptoolbarpinned" : 0,
						"righttoolbarpinned" : 0,
						"bottomtoolbarpinned" : 0,
						"toolbars_unpinned_last_save" : 0,
						"tallnewobj" : 0,
						"boxanimatetime" : 200,
						"enablehscroll" : 1,
						"enablevscroll" : 1,
						"devicewidth" : 0.0,
						"description" : "",
						"digest" : "",
						"tags" : "",
						"style" : "",
						"subpatcher_template" : "",
						"assistshowspatchername" : 0,
						"boxes" : [ 							{
								"box" : 								{
									"id" : "obj-17",
									"maxclass" : "newobj",
									"numinlets" : 1,
									"numoutlets" : 1,
									"outlettype" : [ "" ],
									"patching_rect" : [ 100.0, 144.25, 71.0, 22.0 ],
									"text" : "prepend file"
								}

							}
, 							{
								"box" : 								{
									"id" : "obj-16",
									"maxclass" : "newobj",
									"numinlets" : 1,
									"numoutlets" : 1,
									"outlettype" : [ "" ],
									"patching_rect" : [ 100.0, 179.375, 103.0, 22.0 ],
									"text" : "prepend classifier"
								}

							}
, 							{
								"box" : 								{
									"id" : "obj-7",
									"maxclass" : "newobj",
									"numinlets" : 2,
									"numoutlets" : 2,
									"outlettype" : [ "", "" ],
									"patching_rect" : [ 100.0, 109.125, 103.0, 22.0 ],
									"text" : "route load"
								}

							}
, 							{
								"box" : 								{
									"id" : "obj-5",
									"maxclass" : "newobj",
									"numinlets" : 2,
									"numoutlets" : 2,
									"outlettype" : [ "", "" ],
									"patching_rect" : [ 100.0, 74.0, 128.0, 22.0 ],
									"text" : "route classifier"
								}

							}
, 							{
								"box" : 								{
									"id" : "obj-14",
									"maxclass" : "newobj",
									"numinlets" : 1,
									"numoutlets" : 1,
									"outlettype" : [ "" ],
									"patching_rect" : [ 100.0, 427.0, 47.0, 22.0 ],
									"text" : "dict.iter"
								}

							}
, 							{
								"box" : 								{
									"id" : "obj-8",
									"maxclass" : "newobj",
									"numinlets" : 1,
									"numoutlets" : 1,
									"outlettype" : [ "" ],
									"patching_rect" : [ 17.0, 355.0, 54.0, 22.0 ],
									"text" : "deferlow"
								}

							}
, 							{
								"box" : 								{
									"id" : "obj-6",
									"maxclass" : "newobj",
									"numinlets" : 1,
									"numoutlets" : 1,
									"outlettype" : [ "bang" ],
									"patching_rect" : [ 17.0, 319.875, 58.0, 22.0 ],
									"text" : "loadbang"
								}

							}
, 							{
								"box" : 								{
									"id" : "obj-24",
									"maxclass" : "newobj",
									"numinlets" : 1,
									"numoutlets" : 1,
									"outlettype" : [ "" ],
									"patching_rect" : [ 325.0, 172.0, 81.0, 22.0 ],
									"text" : "prepend write"
								}

							}
, 							{
								"box" : 								{
									"id" : "obj-20",
									"maxclass" : "newobj",
									"numinlets" : 2,
									"numoutlets" : 2,
									"outlettype" : [ "", "" ],
									"patching_rect" : [ 325.0, 137.666666666666657, 253.0, 22.0 ],
									"text" : "combine s stored_data_analysis_settings.json"
								}

							}
, 							{
								"box" : 								{
									"id" : "obj-19",
									"maxclass" : "newobj",
									"numinlets" : 1,
									"numoutlets" : 1,
									"outlettype" : [ "path" ],
									"patching_rect" : [ 277.0, 69.0, 39.0, 22.0 ],
									"text" : "t path"
								}

							}
, 							{
								"box" : 								{
									"id" : "obj-21",
									"maxclass" : "newobj",
									"numinlets" : 1,
									"numoutlets" : 2,
									"outlettype" : [ "", "" ],
									"patching_rect" : [ 277.0, 103.333333333333329, 67.0, 22.0 ],
									"save" : [ "#N", "thispatcher", ";", "#Q", "end", ";" ],
									"text" : "thispatcher"
								}

							}
, 							{
								"box" : 								{
									"id" : "obj-13",
									"maxclass" : "newobj",
									"numinlets" : 1,
									"numoutlets" : 1,
									"outlettype" : [ "" ],
									"patching_rect" : [ 100.0, 355.0, 95.0, 22.0 ],
									"text" : "prepend replace"
								}

							}
, 							{
								"box" : 								{
									"id" : "obj-12",
									"maxclass" : "newobj",
									"numinlets" : 2,
									"numoutlets" : 2,
									"outlettype" : [ "", "" ],
									"patching_rect" : [ 100.0, 319.875, 118.0, 22.0 ],
									"text" : "zl join"
								}

							}
, 							{
								"box" : 								{
									"id" : "obj-11",
									"maxclass" : "newobj",
									"numinlets" : 2,
									"numoutlets" : 2,
									"outlettype" : [ "", "" ],
									"patching_rect" : [ 100.0, 214.5, 118.0, 22.0 ],
									"text" : "zl slice 2"
								}

							}
, 							{
								"box" : 								{
									"id" : "obj-10",
									"maxclass" : "newobj",
									"numinlets" : 1,
									"numoutlets" : 2,
									"outlettype" : [ "", "" ],
									"patching_rect" : [ 100.0, 249.625, 83.0, 22.0 ],
									"text" : "unpack s s"
								}

							}
, 							{
								"box" : 								{
									"id" : "obj-9",
									"maxclass" : "newobj",
									"numinlets" : 3,
									"numoutlets" : 2,
									"outlettype" : [ "", "" ],
									"patching_rect" : [ 100.0, 284.75, 83.0, 22.0 ],
									"text" : "combine s :: s"
								}

							}
, 							{
								"box" : 								{
									"id" : "obj-4",
									"maxclass" : "newobj",
									"numinlets" : 2,
									"numoutlets" : 4,
									"outlettype" : [ "dictionary", "", "", "" ],
									"patching_rect" : [ 100.0, 398.0, 352.0, 22.0 ],
									"saved_object_attributes" : 									{
										"embed" : 0,
										"parameter_enable" : 0,
										"parameter_mappable" : 0
									}
,
									"text" : "dict __ob__analysis_settings stored_data_analysis_settings.json"
								}

							}
, 							{
								"box" : 								{
									"comment" : "Save",
									"id" : "obj-3",
									"index" : 2,
									"maxclass" : "inlet",
									"numinlets" : 0,
									"numoutlets" : 1,
									"outlettype" : [ "" ],
									"patching_rect" : [ 277.0, 29.0, 30.0, 30.0 ]
								}

							}
, 							{
								"box" : 								{
									"comment" : "To Settings",
									"id" : "obj-2",
									"index" : 1,
									"maxclass" : "outlet",
									"numinlets" : 1,
									"numoutlets" : 0,
									"patching_rect" : [ 100.0, 457.0, 30.0, 30.0 ]
								}

							}
, 							{
								"box" : 								{
									"comment" : "From Settings",
									"id" : "obj-1",
									"index" : 1,
									"maxclass" : "inlet",
									"numinlets" : 0,
									"numoutlets" : 1,
									"outlettype" : [ "" ],
									"patching_rect" : [ 100.0, 29.0, 30.0, 30.0 ]
								}

							}
 ],
						"lines" : [ 							{
								"patchline" : 								{
									"destination" : [ "obj-5", 0 ],
									"source" : [ "obj-1", 0 ]
								}

							}
, 							{
								"patchline" : 								{
									"destination" : [ "obj-9", 2 ],
									"source" : [ "obj-10", 1 ]
								}

							}
, 							{
								"patchline" : 								{
									"destination" : [ "obj-9", 0 ],
									"source" : [ "obj-10", 0 ]
								}

							}
, 							{
								"patchline" : 								{
									"destination" : [ "obj-10", 0 ],
									"source" : [ "obj-11", 0 ]
								}

							}
, 							{
								"patchline" : 								{
									"destination" : [ "obj-12", 1 ],
									"source" : [ "obj-11", 1 ]
								}

							}
, 							{
								"patchline" : 								{
									"destination" : [ "obj-13", 0 ],
									"source" : [ "obj-12", 0 ]
								}

							}
, 							{
								"patchline" : 								{
									"destination" : [ "obj-4", 0 ],
									"source" : [ "obj-13", 0 ]
								}

							}
, 							{
								"patchline" : 								{
									"destination" : [ "obj-2", 0 ],
									"source" : [ "obj-14", 0 ]
								}

							}
, 							{
								"patchline" : 								{
									"destination" : [ "obj-11", 0 ],
									"source" : [ "obj-16", 0 ]
								}

							}
, 							{
								"patchline" : 								{
									"destination" : [ "obj-16", 0 ],
									"source" : [ "obj-17", 0 ]
								}

							}
, 							{
								"patchline" : 								{
									"destination" : [ "obj-21", 0 ],
									"source" : [ "obj-19", 0 ]
								}

							}
, 							{
								"patchline" : 								{
									"destination" : [ "obj-24", 0 ],
									"source" : [ "obj-20", 0 ]
								}

							}
, 							{
								"patchline" : 								{
									"destination" : [ "obj-20", 0 ],
									"source" : [ "obj-21", 1 ]
								}

							}
, 							{
								"patchline" : 								{
									"destination" : [ "obj-4", 0 ],
									"midpoints" : [ 334.5, 385.5, 109.5, 385.5 ],
									"source" : [ "obj-24", 0 ]
								}

							}
, 							{
								"patchline" : 								{
									"destination" : [ "obj-19", 0 ],
									"source" : [ "obj-3", 0 ]
								}

							}
, 							{
								"patchline" : 								{
									"destination" : [ "obj-14", 0 ],
									"source" : [ "obj-4", 0 ]
								}

							}
, 							{
								"patchline" : 								{
									"destination" : [ "obj-11", 0 ],
									"midpoints" : [ 218.5, 213.5, 109.5, 213.5 ],
									"source" : [ "obj-5", 1 ]
								}

							}
, 							{
								"patchline" : 								{
									"destination" : [ "obj-7", 0 ],
									"source" : [ "obj-5", 0 ]
								}

							}
, 							{
								"patchline" : 								{
									"destination" : [ "obj-8", 0 ],
									"source" : [ "obj-6", 0 ]
								}

							}
, 							{
								"patchline" : 								{
									"destination" : [ "obj-16", 0 ],
									"midpoints" : [ 193.5, 171.5, 109.5, 171.5 ],
									"source" : [ "obj-7", 1 ]
								}

							}
, 							{
								"patchline" : 								{
									"destination" : [ "obj-17", 0 ],
									"source" : [ "obj-7", 0 ]
								}

							}
, 							{
								"patchline" : 								{
									"destination" : [ "obj-4", 0 ],
									"midpoints" : [ 26.5, 387.0, 109.5, 387.0 ],
									"source" : [ "obj-8", 0 ]
								}

							}
, 							{
								"patchline" : 								{
									"destination" : [ "obj-12", 0 ],
									"source" : [ "obj-9", 0 ]
								}

							}
 ]
					}
,
					"patching_rect" : [ 269.833333000000039, 84.0, 89.0, 22.0 ],
					"saved_object_attributes" : 					{
						"description" : "",
						"digest" : "",
						"globalpatchername" : "",
						"tags" : ""
					}
,
					"text" : "p LoadSettings"
				}

			}
, 			{
				"box" : 				{
					"id" : "obj-6",
					"maxclass" : "newobj",
					"numinlets" : 1,
					"numoutlets" : 2,
					"outlettype" : [ "", "" ],
					"patching_rect" : [ 209.833333000000039, 49.0, 149.0, 22.0 ],
					"text" : "Control_Analysis_Settings"
				}

			}
, 			{
				"box" : 				{
					"id" : "obj-15",
					"maxclass" : "newobj",
					"numinlets" : 2,
					"numoutlets" : 2,
					"outlettype" : [ "", "" ],
					"patching_rect" : [ 24.0, 248.0, 103.0, 22.0 ],
					"text" : "route mulltiphonic"
				}

			}
, 			{
				"box" : 				{
					"id" : "obj-13",
					"maxclass" : "newobj",
					"numinlets" : 1,
					"numoutlets" : 1,
					"outlettype" : [ "" ],
					"patching_rect" : [ 409.0, 84.0, 103.0, 22.0 ],
					"text" : "prepend classifier"
				}

			}
, 			{
				"box" : 				{
					"id" : "obj-9",
					"maxclass" : "newobj",
					"numinlets" : 1,
					"numoutlets" : 1,
					"outlettype" : [ "" ],
					"patching_rect" : [ 92.0, 473.0, 103.0, 22.0 ],
					"text" : "prepend structure"
				}

			}
, 			{
				"box" : 				{
					"id" : "obj-14",
					"maxclass" : "message",
					"numinlets" : 2,
					"numoutlets" : 1,
					"outlettype" : [ "" ],
					"patching_rect" : [ 283.333333000000039, 473.0, 97.0, 22.0 ],
					"text" : "Arrival A 0"
				}

			}
, 			{
				"box" : 				{
					"id" : "obj-12",
					"maxclass" : "newobj",
					"numinlets" : 1,
					"numoutlets" : 1,
					"outlettype" : [ "" ],
					"patching_rect" : [ 250.0, 387.261108422077541, 19.0, 22.0 ],
					"text" : "t l"
				}

			}
, 			{
				"box" : 				{
					"id" : "obj-147",
					"maxclass" : "newobj",
					"numinlets" : 2,
					"numoutlets" : 1,
					"outlettype" : [ "" ],
					"patching_rect" : [ 92.0, 430.5, 177.0, 22.0 ],
					"text" : "Structure_Multiphonic_Tracking"
				}

			}
, 			{
				"box" : 				{
					"id" : "obj-140",
					"maxclass" : "message",
					"numinlets" : 2,
					"numoutlets" : 1,
					"outlettype" : [ "" ],
					"patching_rect" : [ 477.666666500000019, 270.468270552057447, 57.0, 22.0 ],
					"text" : "Extend B"
				}

			}
, 			{
				"box" : 				{
					"id" : "obj-121",
					"maxclass" : "message",
					"numinlets" : 2,
					"numoutlets" : 1,
					"outlettype" : [ "" ],
					"patching_rect" : [ 355.333333000000039, 188.675432682037354, 55.0, 22.0 ],
					"text" : "Displace"
				}

			}
, 			{
				"box" : 				{
					"id" : "obj-120",
					"maxclass" : "message",
					"numinlets" : 2,
					"numoutlets" : 1,
					"outlettype" : [ "" ],
					"patching_rect" : [ 293.666666500000019, 352.261108422077541, 37.0, 22.0 ],
					"text" : "Coda"
				}

			}
, 			{
				"box" : 				{
					"id" : "obj-118",
					"maxclass" : "message",
					"numinlets" : 2,
					"numoutlets" : 1,
					"outlettype" : [ "" ],
					"patching_rect" : [ 597.333333000000039, 229.5718516170474, 51.0, 22.0 ],
					"text" : "Division"
				}

			}
, 			{
				"box" : 				{
					"id" : "obj-117",
					"maxclass" : "message",
					"numinlets" : 2,
					"numoutlets" : 1,
					"outlettype" : [ "" ],
					"patching_rect" : [ 489.666666500000019, 188.675432682037354, 49.0, 22.0 ],
					"text" : "Ground"
				}

			}
, 			{
				"box" : 				{
					"id" : "obj-115",
					"maxclass" : "message",
					"numinlets" : 2,
					"numoutlets" : 1,
					"outlettype" : [ "" ],
					"patching_rect" : [ 293.666666500000019, 229.5718516170474, 55.0, 22.0 ],
					"text" : "ToArrival"
				}

			}
, 			{
				"box" : 				{
					"id" : "obj-116",
					"maxclass" : "message",
					"numinlets" : 2,
					"numoutlets" : 1,
					"outlettype" : [ "" ],
					"patching_rect" : [ 552.333333000000039, 270.468270552057447, 61.0, 22.0 ],
					"text" : "Transition"
				}

			}
, 			{
				"box" : 				{
					"id" : "obj-113",
					"maxclass" : "message",
					"numinlets" : 2,
					"numoutlets" : 1,
					"outlettype" : [ "" ],
					"patching_rect" : [ 443.499999500000058, 311.364689487067494, 60.0, 22.0 ],
					"text" : "BlockTwo"
				}

			}
, 			{
				"box" : 				{
					"id" : "obj-114",
					"maxclass" : "message",
					"numinlets" : 2,
					"numoutlets" : 1,
					"outlettype" : [ "" ],
					"patching_rect" : [ 358.333333000000039, 311.364689487067494, 61.0, 22.0 ],
					"text" : "BlockOne"
				}

			}
, 			{
				"box" : 				{
					"id" : "obj-112",
					"maxclass" : "message",
					"numinlets" : 2,
					"numoutlets" : 1,
					"outlettype" : [ "" ],
					"patching_rect" : [ 505.666666500000019, 229.5718516170474, 69.0, 22.0 ],
					"text" : "ClusterTwo"
				}

			}
, 			{
				"box" : 				{
					"id" : "obj-111",
					"maxclass" : "message",
					"numinlets" : 2,
					"numoutlets" : 1,
					"outlettype" : [ "" ],
					"patching_rect" : [ 418.833333000000039, 229.5718516170474, 69.0, 22.0 ],
					"text" : "ClusterOne"
				}

			}
, 			{
				"box" : 				{
					"id" : "obj-110",
					"maxclass" : "message",
					"numinlets" : 2,
					"numoutlets" : 1,
					"outlettype" : [ "" ],
					"patching_rect" : [ 293.666666500000019, 311.364689487067494, 41.0, 22.0 ],
					"text" : "Loops"
				}

			}
, 			{
				"box" : 				{
					"id" : "obj-109",
					"maxclass" : "message",
					"numinlets" : 2,
					"numoutlets" : 1,
					"outlettype" : [ "" ],
					"patching_rect" : [ 413.833333000000039, 270.468270552057447, 57.0, 22.0 ],
					"text" : "Extend A"
				}

			}
, 			{
				"box" : 				{
					"id" : "obj-108",
					"maxclass" : "message",
					"numinlets" : 2,
					"numoutlets" : 1,
					"outlettype" : [ "" ],
					"patching_rect" : [ 358.333333000000039, 270.468270552057447, 39.0, 22.0 ],
					"text" : "Press"
				}

			}
, 			{
				"box" : 				{
					"id" : "obj-107",
					"maxclass" : "message",
					"numinlets" : 2,
					"numoutlets" : 1,
					"outlettype" : [ "" ],
					"patching_rect" : [ 429.833333000000039, 188.675432682037354, 36.0, 22.0 ],
					"text" : "Push"
				}

			}
, 			{
				"box" : 				{
					"id" : "obj-106",
					"maxclass" : "message",
					"numinlets" : 2,
					"numoutlets" : 1,
					"outlettype" : [ "" ],
					"patching_rect" : [ 366.333333000000039, 229.5718516170474, 43.0, 22.0 ],
					"text" : "Arrival"
				}

			}
, 			{
				"box" : 				{
					"id" : "obj-1",
					"maxclass" : "message",
					"numinlets" : 2,
					"numoutlets" : 1,
					"outlettype" : [ "" ],
					"patching_rect" : [ 293.666666500000019, 270.468270552057447, 45.0, 22.0 ],
					"text" : "Centre"
				}

			}
, 			{
				"box" : 				{
					"id" : "obj-2",
					"maxclass" : "message",
					"numinlets" : 2,
					"numoutlets" : 1,
					"outlettype" : [ "" ],
					"patching_rect" : [ 293.666666500000019, 188.675432682037354, 41.0, 22.0 ],
					"text" : "Origin"
				}

			}
, 			{
				"box" : 				{
					"id" : "obj-59",
					"maxclass" : "newobj",
					"numinlets" : 2,
					"numoutlets" : 2,
					"outlettype" : [ "", "" ],
					"patching_rect" : [ 24.0, 282.47369122505188, 87.0, 22.0 ],
					"text" : "route unknown"
				}

			}
, 			{
				"box" : 				{
					"id" : "obj-58",
					"maxclass" : "newobj",
					"numinlets" : 2,
					"numoutlets" : 1,
					"outlettype" : [ "" ],
					"patching_rect" : [ 24.0, 165.987793000000011, 76.0, 22.0 ],
					"text" : "Analysis_RT"
				}

			}
, 			{
				"box" : 				{
					"id" : "obj-53",
					"maxclass" : "newobj",
					"numinlets" : 1,
					"numoutlets" : 1,
					"outlettype" : [ "" ],
					"patching_rect" : [ 409.0, 53.0, 89.0, 22.0 ],
					"text" : "prepend detect"
				}

			}
, 			{
				"box" : 				{
					"id" : "obj-11",
					"maxclass" : "toggle",
					"numinlets" : 1,
					"numoutlets" : 1,
					"outlettype" : [ "int" ],
					"parameter_enable" : 0,
					"patching_rect" : [ 409.0, 21.0, 24.0, 24.0 ]
				}

			}
, 			{
				"box" : 				{
					"id" : "obj-3",
					"maxclass" : "newobj",
					"numinlets" : 1,
					"numoutlets" : 2,
					"outlettype" : [ "signal", "signal" ],
					"patching_rect" : [ 24.0, 130.0, 35.0, 22.0 ],
					"text" : "adc~"
				}

			}
, 			{
				"box" : 				{
					"id" : "obj-44",
					"maxclass" : "newobj",
					"numinlets" : 1,
					"numoutlets" : 0,
					"patcher" : 					{
						"fileversion" : 1,
						"appversion" : 						{
							"major" : 8,
							"minor" : 1,
							"revision" : 8,
							"architecture" : "x64",
							"modernui" : 1
						}
,
						"classnamespace" : "box",
						"rect" : [ 59.0, 90.0, 1172.0, 908.0 ],
						"bglocked" : 0,
						"openinpresentation" : 0,
						"default_fontsize" : 12.0,
						"default_fontface" : 0,
						"default_fontname" : "Arial",
						"gridonopen" : 1,
						"gridsize" : [ 15.0, 15.0 ],
						"gridsnaponopen" : 1,
						"objectsnaponopen" : 1,
						"statusbarvisible" : 2,
						"toolbarvisible" : 1,
						"lefttoolbarpinned" : 0,
						"toptoolbarpinned" : 0,
						"righttoolbarpinned" : 0,
						"bottomtoolbarpinned" : 0,
						"toolbars_unpinned_last_save" : 0,
						"tallnewobj" : 0,
						"boxanimatetime" : 200,
						"enablehscroll" : 1,
						"enablevscroll" : 1,
						"devicewidth" : 0.0,
						"description" : "",
						"digest" : "",
						"tags" : "",
						"style" : "",
						"subpatcher_template" : "",
						"assistshowspatchername" : 0,
						"boxes" : [ 							{
								"box" : 								{
									"id" : "obj-41",
									"maxclass" : "message",
									"numinlets" : 2,
									"numoutlets" : 1,
									"outlettype" : [ "" ],
									"patching_rect" : [ 123.0, 362.0, 87.0, 22.0 ],
									"text" : "pt1 noise set 0"
								}

							}
, 							{
								"box" : 								{
									"id" : "obj-39",
									"maxclass" : "comment",
									"numinlets" : 1,
									"numoutlets" : 0,
									"patching_rect" : [ 58.0, 791.0, 150.0, 20.0 ],
									"text" : "Single pushes"
								}

							}
, 							{
								"box" : 								{
									"id" : "obj-34",
									"maxclass" : "comment",
									"numinlets" : 1,
									"numoutlets" : 0,
									"patching_rect" : [ 598.0, 839.0, 150.0, 20.0 ],
									"text" : "Multiple wobbly push"
								}

							}
, 							{
								"box" : 								{
									"id" : "obj-32",
									"maxclass" : "button",
									"numinlets" : 1,
									"numoutlets" : 1,
									"outlettype" : [ "bang" ],
									"parameter_enable" : 0,
									"patching_rect" : [ 534.0, 781.0, 24.0, 24.0 ]
								}

							}
, 							{
								"box" : 								{
									"color" : [ 0.317647, 0.654902, 0.976471, 1.0 ],
									"data" : 									{
										"mode" : "loop",
										"scaling" : [ "amp", -15, 3 ],
										"start" : "7-8",
										"items" : 										{
											"item_0" : 											{
												"time" : [ 1540, 0.45, 1.8 ],
												"gesture" : [ "flat", "last" ]
											}
,
											"item_1" : 											{
												"repeats" : [ 3, 7 ],
												"time" : [ 500, 0.95, 0.3 ],
												"gesture" : [ "triangle", "5-9", "last", "8-10", "8-9", 0, "2-3", "5-6", 0, "2-3", "5-6" ]
											}
,
											"item_2" : 											{
												"time" : [ 600, 0.45, 1.8 ],
												"gesture" : [ "line", "last", "0-6", 0, "2-3", "5-6" ]
											}

										}

									}
,
									"id" : "obj-1",
									"maxclass" : "newobj",
									"numinlets" : 2,
									"numoutlets" : 4,
									"outlettype" : [ "dictionary", "", "", "" ],
									"patching_rect" : [ 500.0, 847.0, 89.0, 22.0 ],
									"saved_object_attributes" : 									{
										"embed" : 1,
										"parameter_enable" : 0,
										"parameter_mappable" : 0
									}
,
									"text" : "dict @embed 1"
								}

							}
, 							{
								"box" : 								{
									"id" : "obj-31",
									"linecount" : 2,
									"maxclass" : "comment",
									"numinlets" : 1,
									"numoutlets" : 0,
									"patching_rect" : [ 41.0, 288.0, 150.0, 33.0 ],
									"text" : "USE THIS ONLY WHEN BOTH!!!!!"
								}

							}
, 							{
								"box" : 								{
									"id" : "obj-14",
									"linecount" : 2,
									"maxclass" : "comment",
									"numinlets" : 1,
									"numoutlets" : 0,
									"patching_rect" : [ 64.0, 240.0, 150.0, 33.0 ],
									"text" : "EITHER INDIVDUALLY OR TOGETHER"
								}

							}
, 							{
								"box" : 								{
									"id" : "obj-12",
									"maxclass" : "comment",
									"numinlets" : 1,
									"numoutlets" : 0,
									"patching_rect" : [ 77.0, 188.0, 150.0, 20.0 ],
									"text" : "NO SLICING"
								}

							}
, 							{
								"box" : 								{
									"id" : "obj-2",
									"maxclass" : "comment",
									"numinlets" : 1,
									"numoutlets" : 0,
									"patching_rect" : [ 36.0, 759.0, 237.0, 20.0 ],
									"text" : "Some optional pushes for amplitude voices"
								}

							}
, 							{
								"box" : 								{
									"id" : "obj-43",
									"maxclass" : "button",
									"numinlets" : 1,
									"numoutlets" : 1,
									"outlettype" : [ "bang" ],
									"parameter_enable" : 0,
									"patching_rect" : [ 289.583333333333485, 709.0, 24.0, 24.0 ]
								}

							}
, 							{
								"box" : 								{
									"id" : "obj-44",
									"maxclass" : "newobj",
									"numinlets" : 1,
									"numoutlets" : 1,
									"outlettype" : [ "" ],
									"patching_rect" : [ 276.5, 785.0, 169.0, 22.0 ],
									"text" : "prepend voice volume gesture"
								}

							}
, 							{
								"box" : 								{
									"color" : [ 0.317647, 0.654902, 0.976471, 1.0 ],
									"data" : 									{
										"mode" : "loop",
										"scaling" : [ "amp", -12, 3 ],
										"start" : "7-8",
										"items" : 										{
											"item_0" : 											{
												"time" : [ 1540, 0.75, 2.8 ],
												"gesture" : [ "flat", "last" ]
											}
,
											"item_1" : 											{
												"repeats" : [ 1, 4 ],
												"time" : [ 1550, 0.8, 1.4 ],
												"gesture" : [ "triangle", "5-9", "last", "8-10", "0-6", 0, "2-3", "5-6", 0, "2-3", "5-6" ]
											}

										}

									}
,
									"id" : "obj-45",
									"maxclass" : "newobj",
									"numinlets" : 2,
									"numoutlets" : 4,
									"outlettype" : [ "dictionary", "", "", "" ],
									"patching_rect" : [ 285.583333333333485, 753.0, 89.0, 22.0 ],
									"saved_object_attributes" : 									{
										"embed" : 1,
										"parameter_enable" : 0,
										"parameter_mappable" : 0
									}
,
									"text" : "dict @embed 1"
								}

							}
, 							{
								"box" : 								{
									"id" : "obj-38",
									"linecount" : 3,
									"maxclass" : "comment",
									"numinlets" : 1,
									"numoutlets" : 0,
									"patching_rect" : [ 57.0, 476.0, 150.0, 47.0 ],
									"text" : "Ampltitude pushes on both the partials and the voice! Non-optional"
								}

							}
, 							{
								"box" : 								{
									"id" : "obj-24",
									"maxclass" : "button",
									"numinlets" : 1,
									"numoutlets" : 1,
									"outlettype" : [ "bang" ],
									"parameter_enable" : 0,
									"patching_rect" : [ 164.083333333333485, 526.0, 24.0, 24.0 ]
								}

							}
, 							{
								"box" : 								{
									"id" : "obj-25",
									"maxclass" : "newobj",
									"numinlets" : 1,
									"numoutlets" : 1,
									"outlettype" : [ "" ],
									"patching_rect" : [ 151.0, 602.0, 169.0, 22.0 ],
									"text" : "prepend voice volume gesture"
								}

							}
, 							{
								"box" : 								{
									"color" : [ 0.317647, 0.654902, 0.976471, 1.0 ],
									"data" : 									{
										"mode" : "loop",
										"scaling" : [ "amp", -18, 0 ],
										"start" : "7-8",
										"items" : 										{
											"item_0" : 											{
												"time" : [ 1540, 0.45, 1.8 ],
												"gesture" : [ "flat", "last" ]
											}
,
											"item_1" : 											{
												"time" : [ 2240, 0.8, 0.8 ],
												"gesture" : [ "triangle", "5-9", "last", "8-10", "0-6", 0, "2-3", "5-6", 0, "2-3", "5-6" ]
											}

										}

									}
,
									"id" : "obj-28",
									"maxclass" : "newobj",
									"numinlets" : 2,
									"numoutlets" : 4,
									"outlettype" : [ "dictionary", "", "", "" ],
									"patching_rect" : [ 160.083333333333485, 570.0, 89.0, 22.0 ],
									"saved_object_attributes" : 									{
										"embed" : 1,
										"parameter_enable" : 0,
										"parameter_mappable" : 0
									}
,
									"text" : "dict @embed 1"
								}

							}
, 							{
								"box" : 								{
									"color" : [ 0.701961, 0.415686, 0.886275, 1.0 ],
									"id" : "obj-21",
									"maxclass" : "newobj",
									"numinlets" : 1,
									"numoutlets" : 1,
									"outlettype" : [ "" ],
									"patching_rect" : [ 410.0, 555.0, 73.0, 22.0 ],
									"text" : "prepend pt1"
								}

							}
, 							{
								"box" : 								{
									"color" : [ 0.701961, 0.415686, 0.886275, 1.0 ],
									"id" : "obj-13",
									"maxclass" : "newobj",
									"numinlets" : 1,
									"numoutlets" : 1,
									"outlettype" : [ "" ],
									"patching_rect" : [ 692.0, 420.5, 141.0, 22.0 ],
									"text" : "Test_Cycle_Samples pt1"
								}

							}
, 							{
								"box" : 								{
									"id" : "obj-9",
									"maxclass" : "button",
									"numinlets" : 1,
									"numoutlets" : 1,
									"outlettype" : [ "bang" ],
									"parameter_enable" : 0,
									"patching_rect" : [ 264.083333333333485, 469.0, 24.0, 24.0 ]
								}

							}
, 							{
								"box" : 								{
									"id" : "obj-55",
									"maxclass" : "newobj",
									"numinlets" : 1,
									"numoutlets" : 1,
									"outlettype" : [ "" ],
									"patching_rect" : [ 251.0, 545.0, 138.0, 22.0 ],
									"text" : "prepend volume gesture"
								}

							}
, 							{
								"box" : 								{
									"color" : [ 0.317647, 0.654902, 0.976471, 1.0 ],
									"data" : 									{
										"mode" : "loop",
										"scaling" : [ "amp", -8, 0 ],
										"start" : "7-8",
										"items" : 										{
											"item_0" : 											{
												"time" : [ 3540, 0.8, 0.8 ],
												"gesture" : [ "flat", "last" ]
											}
,
											"item_1" : 											{
												"time" : [ 1240, 0.8, 0.8 ],
												"gesture" : [ "triangle", "5-9", "last", "8-10", "0-6", 0, "2-3", "5-6", 0, "2-3", "5-6" ]
											}

										}

									}
,
									"id" : "obj-48",
									"maxclass" : "newobj",
									"numinlets" : 2,
									"numoutlets" : 4,
									"outlettype" : [ "dictionary", "", "", "" ],
									"patching_rect" : [ 260.083333333333485, 513.0, 89.0, 22.0 ],
									"saved_object_attributes" : 									{
										"embed" : 1,
										"parameter_enable" : 0,
										"parameter_mappable" : 0
									}
,
									"text" : "dict @embed 1"
								}

							}
, 							{
								"box" : 								{
									"id" : "obj-5",
									"maxclass" : "comment",
									"numinlets" : 1,
									"numoutlets" : 0,
									"patching_rect" : [ 380.0, 29.0, 223.0, 20.0 ],
									"text" : "Think about a larger set of voices here!!!"
								}

							}
, 							{
								"box" : 								{
									"id" : "obj-18",
									"maxclass" : "toggle",
									"numinlets" : 1,
									"numoutlets" : 1,
									"outlettype" : [ "int" ],
									"parameter_enable" : 0,
									"patching_rect" : [ 332.0, 140.0, 24.0, 24.0 ]
								}

							}
, 							{
								"box" : 								{
									"id" : "obj-15",
									"maxclass" : "message",
									"numinlets" : 2,
									"numoutlets" : 1,
									"outlettype" : [ "" ],
									"patching_rect" : [ 325.0, 171.0, 72.0, 22.0 ],
									"text" : "slices on $1"
								}

							}
, 							{
								"box" : 								{
									"id" : "obj-10",
									"maxclass" : "comment",
									"numinlets" : 1,
									"numoutlets" : 0,
									"patching_rect" : [ 992.0, 38.0, 150.0, 20.0 ],
									"text" : "Try also without filter!"
								}

							}
, 							{
								"box" : 								{
									"id" : "obj-16",
									"maxclass" : "message",
									"numinlets" : 2,
									"numoutlets" : 1,
									"outlettype" : [ "" ],
									"patching_rect" : [ 13.0, 329.0, 192.0, 22.0 ],
									"text" : "pt1 noise set random scale 0.4 0.6"
								}

							}
, 							{
								"box" : 								{
									"id" : "obj-115",
									"maxclass" : "message",
									"numinlets" : 2,
									"numoutlets" : 1,
									"outlettype" : [ "" ],
									"patching_rect" : [ 548.0, 634.0, 55.0, 22.0 ],
									"text" : "pt1 reset"
								}

							}
, 							{
								"box" : 								{
									"id" : "obj-111",
									"linecount" : 2,
									"maxclass" : "comment",
									"numinlets" : 1,
									"numoutlets" : 0,
									"patching_rect" : [ 812.0, 22.5, 150.0, 33.0 ],
									"text" : "Need voices to end here!!!!"
								}

							}
, 							{
								"box" : 								{
									"id" : "obj-107",
									"maxclass" : "comment",
									"numinlets" : 1,
									"numoutlets" : 0,
									"patching_rect" : [ 557.0, 165.0, 150.0, 20.0 ],
									"text" : "A and Static (amounts)"
								}

							}
, 							{
								"box" : 								{
									"id" : "obj-105",
									"maxclass" : "comment",
									"numinlets" : 1,
									"numoutlets" : 0,
									"patching_rect" : [ 548.0, 88.0, 150.0, 20.0 ],
									"text" : "Play with filter and slices"
								}

							}
, 							{
								"box" : 								{
									"id" : "obj-99",
									"maxclass" : "message",
									"numinlets" : 2,
									"numoutlets" : 1,
									"outlettype" : [ "" ],
									"patching_rect" : [ 597.0, 602.0, 37.0, 22.0 ],
									"text" : "panic"
								}

							}
, 							{
								"box" : 								{
									"id" : "obj-95",
									"maxclass" : "message",
									"numinlets" : 2,
									"numoutlets" : 1,
									"outlettype" : [ "" ],
									"patching_rect" : [ 480.0, 593.0, 59.0, 22.0 ],
									"text" : "gn1 reset"
								}

							}
, 							{
								"box" : 								{
									"id" : "obj-93",
									"maxclass" : "toggle",
									"numinlets" : 1,
									"numoutlets" : 1,
									"outlettype" : [ "int" ],
									"parameter_enable" : 0,
									"patching_rect" : [ 740.0, 38.0, 24.0, 24.0 ]
								}

							}
, 							{
								"box" : 								{
									"color" : [ 0.701961, 0.415686, 0.886275, 1.0 ],
									"id" : "obj-89",
									"maxclass" : "newobj",
									"numinlets" : 1,
									"numoutlets" : 1,
									"outlettype" : [ "" ],
									"patching_rect" : [ 520.0, 443.0, 144.0, 22.0 ],
									"text" : "Test_Cycle_Samples gn1"
								}

							}
, 							{
								"box" : 								{
									"color" : [ 0.701961, 0.415686, 0.886275, 1.0 ],
									"id" : "obj-88",
									"maxclass" : "newobj",
									"numinlets" : 1,
									"numoutlets" : 1,
									"outlettype" : [ "" ],
									"patching_rect" : [ 717.0, 501.0, 76.0, 22.0 ],
									"text" : "prepend gn1"
								}

							}
, 							{
								"box" : 								{
									"color" : [ 0.92549, 0.364706, 0.341176, 1.0 ],
									"id" : "obj-87",
									"maxclass" : "newobj",
									"numinlets" : 2,
									"numoutlets" : 1,
									"outlettype" : [ "" ],
									"patching_rect" : [ 533.0, 384.0, 289.0, 22.0 ],
									"text" : "Choose_Item BlockOne A Random_Groups_Change"
								}

							}
, 							{
								"box" : 								{
									"id" : "obj-37",
									"maxclass" : "button",
									"numinlets" : 1,
									"numoutlets" : 1,
									"outlettype" : [ "bang" ],
									"parameter_enable" : 0,
									"patching_rect" : [ 843.5, 331.0, 24.0, 24.0 ]
								}

							}
, 							{
								"box" : 								{
									"color" : [ 0.317647, 0.654902, 0.976471, 1.0 ],
									"id" : "obj-26",
									"maxclass" : "newobj",
									"numinlets" : 4,
									"numoutlets" : 0,
									"patching_rect" : [ 675.0, 624.0, 140.0, 22.0 ],
									"text" : "Layers_Proxy block_one"
								}

							}
, 							{
								"box" : 								{
									"id" : "obj-86",
									"maxclass" : "ezdac~",
									"numinlets" : 2,
									"numoutlets" : 0,
									"patching_rect" : [ 843.5, 401.0, 45.0, 45.0 ]
								}

							}
, 							{
								"box" : 								{
									"color" : [ 0.317647, 0.654902, 0.976471, 1.0 ],
									"id" : "obj-22",
									"maxclass" : "newobj",
									"numinlets" : 1,
									"numoutlets" : 2,
									"outlettype" : [ "signal", "signal" ],
									"patching_rect" : [ 843.5, 361.0, 314.0, 22.0 ],
									"text" : "Layers_Remote block_one layers8_blockone bk_one_bm"
								}

							}
, 							{
								"box" : 								{
									"id" : "obj-36",
									"maxclass" : "message",
									"numinlets" : 2,
									"numoutlets" : 1,
									"outlettype" : [ "" ],
									"patching_rect" : [ 904.0, 186.0, 87.0, 22.0 ],
									"text" : "interval 80 220"
								}

							}
, 							{
								"box" : 								{
									"id" : "obj-29",
									"maxclass" : "message",
									"numinlets" : 2,
									"numoutlets" : 1,
									"outlettype" : [ "" ],
									"patching_rect" : [ 874.0, 155.0, 88.0, 22.0 ],
									"text" : "length 700 900"
								}

							}
, 							{
								"box" : 								{
									"id" : "obj-27",
									"maxclass" : "message",
									"numinlets" : 2,
									"numoutlets" : 1,
									"outlettype" : [ "" ],
									"patching_rect" : [ 783.0, 129.0, 78.0, 22.0 ],
									"text" : "volume -15 0"
								}

							}
, 							{
								"box" : 								{
									"id" : "obj-17",
									"linecount" : 2,
									"maxclass" : "message",
									"numinlets" : 2,
									"numoutlets" : 1,
									"outlettype" : [ "" ],
									"patching_rect" : [ 339.0, 414.0, 151.0, 35.0 ],
									"text" : "BlockOne_A_I2_M88_Static2"
								}

							}
, 							{
								"box" : 								{
									"id" : "obj-19",
									"maxclass" : "message",
									"numinlets" : 2,
									"numoutlets" : 1,
									"outlettype" : [ "" ],
									"patching_rect" : [ 717.0, 86.0, 402.0, 22.0 ],
									"text" : "filter_switch $1, filter_mode lowpass, filter_reson 0.4, filter_freq 400 11000"
								}

							}
, 							{
								"box" : 								{
									"id" : "obj-20",
									"maxclass" : "message",
									"numinlets" : 2,
									"numoutlets" : 1,
									"outlettype" : [ "" ],
									"patching_rect" : [ 595.0, 265.0, 39.0, 22.0 ],
									"text" : "Static"
								}

							}
, 							{
								"box" : 								{
									"id" : "obj-4",
									"linecount" : 4,
									"maxclass" : "comment",
									"numinlets" : 1,
									"numoutlets" : 0,
									"patching_rect" : [ 245.0, 309.0, 150.0, 60.0 ],
									"text" : "If done with granular the \"slice\" stuff will move around with narrowing (c. 20 ms)"
								}

							}
, 							{
								"box" : 								{
									"id" : "obj-11",
									"maxclass" : "comment",
									"numinlets" : 1,
									"numoutlets" : 0,
									"patching_rect" : [ 564.0, 362.0, 150.0, 20.0 ],
									"text" : "Or Change Not??"
								}

							}
, 							{
								"box" : 								{
									"id" : "obj-3",
									"maxclass" : "message",
									"numinlets" : 2,
									"numoutlets" : 1,
									"outlettype" : [ "" ],
									"patching_rect" : [ 509.0, 239.0, 45.0, 22.0 ],
									"text" : "4 5 0.1"
								}

							}
, 							{
								"box" : 								{
									"color" : [ 0.952941, 0.564706, 0.098039, 1.0 ],
									"id" : "obj-7",
									"maxclass" : "newobj",
									"numinlets" : 1,
									"numoutlets" : 2,
									"outlettype" : [ "bang", "bang" ],
									"patching_rect" : [ 67.0, 55.0, 199.0, 22.0 ],
									"text" : "Structure_Match_Section BlockOne"
								}

							}
, 							{
								"box" : 								{
									"comment" : "Control In",
									"id" : "obj-47",
									"index" : 1,
									"maxclass" : "inlet",
									"numinlets" : 0,
									"numoutlets" : 1,
									"outlettype" : [ "" ],
									"patching_rect" : [ 67.0, 14.0, 30.0, 30.0 ]
								}

							}
 ],
						"lines" : [ 							{
								"patchline" : 								{
									"destination" : [ "obj-44", 0 ],
									"source" : [ "obj-1", 0 ]
								}

							}
, 							{
								"patchline" : 								{
									"destination" : [ "obj-26", 0 ],
									"source" : [ "obj-115", 0 ]
								}

							}
, 							{
								"patchline" : 								{
									"destination" : [ "obj-26", 1 ],
									"source" : [ "obj-13", 0 ]
								}

							}
, 							{
								"patchline" : 								{
									"destination" : [ "obj-88", 0 ],
									"source" : [ "obj-15", 0 ]
								}

							}
, 							{
								"patchline" : 								{
									"destination" : [ "obj-26", 0 ],
									"source" : [ "obj-16", 0 ]
								}

							}
, 							{
								"patchline" : 								{
									"destination" : [ "obj-15", 0 ],
									"source" : [ "obj-18", 0 ]
								}

							}
, 							{
								"patchline" : 								{
									"destination" : [ "obj-88", 0 ],
									"source" : [ "obj-19", 0 ]
								}

							}
, 							{
								"patchline" : 								{
									"destination" : [ "obj-87", 1 ],
									"source" : [ "obj-20", 0 ]
								}

							}
, 							{
								"patchline" : 								{
									"destination" : [ "obj-26", 0 ],
									"source" : [ "obj-21", 0 ]
								}

							}
, 							{
								"patchline" : 								{
									"destination" : [ "obj-86", 1 ],
									"midpoints" : [ 1148.0, 391.5, 879.0, 391.5 ],
									"source" : [ "obj-22", 1 ]
								}

							}
, 							{
								"patchline" : 								{
									"destination" : [ "obj-86", 0 ],
									"source" : [ "obj-22", 0 ]
								}

							}
, 							{
								"patchline" : 								{
									"destination" : [ "obj-28", 0 ],
									"source" : [ "obj-24", 0 ]
								}

							}
, 							{
								"patchline" : 								{
									"destination" : [ "obj-21", 0 ],
									"source" : [ "obj-25", 0 ]
								}

							}
, 							{
								"patchline" : 								{
									"destination" : [ "obj-88", 0 ],
									"source" : [ "obj-27", 0 ]
								}

							}
, 							{
								"patchline" : 								{
									"destination" : [ "obj-25", 0 ],
									"source" : [ "obj-28", 0 ]
								}

							}
, 							{
								"patchline" : 								{
									"destination" : [ "obj-88", 0 ],
									"source" : [ "obj-29", 0 ]
								}

							}
, 							{
								"patchline" : 								{
									"destination" : [ "obj-20", 0 ],
									"order" : 0,
									"source" : [ "obj-3", 0 ]
								}

							}
, 							{
								"patchline" : 								{
									"destination" : [ "obj-87", 0 ],
									"order" : 1,
									"source" : [ "obj-3", 0 ]
								}

							}
, 							{
								"patchline" : 								{
									"destination" : [ "obj-1", 0 ],
									"source" : [ "obj-32", 0 ]
								}

							}
, 							{
								"patchline" : 								{
									"destination" : [ "obj-88", 0 ],
									"source" : [ "obj-36", 0 ]
								}

							}
, 							{
								"patchline" : 								{
									"destination" : [ "obj-22", 0 ],
									"source" : [ "obj-37", 0 ]
								}

							}
, 							{
								"patchline" : 								{
									"destination" : [ "obj-26", 0 ],
									"source" : [ "obj-41", 0 ]
								}

							}
, 							{
								"patchline" : 								{
									"destination" : [ "obj-45", 0 ],
									"source" : [ "obj-43", 0 ]
								}

							}
, 							{
								"patchline" : 								{
									"destination" : [ "obj-88", 0 ],
									"source" : [ "obj-44", 0 ]
								}

							}
, 							{
								"patchline" : 								{
									"destination" : [ "obj-44", 0 ],
									"source" : [ "obj-45", 0 ]
								}

							}
, 							{
								"patchline" : 								{
									"destination" : [ "obj-7", 0 ],
									"source" : [ "obj-47", 0 ]
								}

							}
, 							{
								"patchline" : 								{
									"destination" : [ "obj-55", 0 ],
									"source" : [ "obj-48", 0 ]
								}

							}
, 							{
								"patchline" : 								{
									"destination" : [ "obj-21", 0 ],
									"source" : [ "obj-55", 0 ]
								}

							}
, 							{
								"patchline" : 								{
									"destination" : [ "obj-13", 0 ],
									"order" : 0,
									"source" : [ "obj-87", 0 ]
								}

							}
, 							{
								"patchline" : 								{
									"destination" : [ "obj-17", 1 ],
									"order" : 1,
									"source" : [ "obj-87", 0 ]
								}

							}
, 							{
								"patchline" : 								{
									"destination" : [ "obj-26", 0 ],
									"source" : [ "obj-88", 0 ]
								}

							}
, 							{
								"patchline" : 								{
									"destination" : [ "obj-26", 1 ],
									"source" : [ "obj-89", 0 ]
								}

							}
, 							{
								"patchline" : 								{
									"destination" : [ "obj-48", 0 ],
									"source" : [ "obj-9", 0 ]
								}

							}
, 							{
								"patchline" : 								{
									"destination" : [ "obj-19", 0 ],
									"source" : [ "obj-93", 0 ]
								}

							}
, 							{
								"patchline" : 								{
									"destination" : [ "obj-26", 0 ],
									"source" : [ "obj-95", 0 ]
								}

							}
, 							{
								"patchline" : 								{
									"destination" : [ "obj-26", 0 ],
									"source" : [ "obj-99", 0 ]
								}

							}
 ],
						"styles" : [ 							{
								"name" : "max6box",
								"default" : 								{
									"bgcolor" : [ 1.0, 1.0, 1.0, 0.5 ],
									"accentcolor" : [ 0.8, 0.839216, 0.709804, 1.0 ],
									"textcolor_inverse" : [ 0.0, 0.0, 0.0, 1.0 ]
								}
,
								"parentstyle" : "",
								"multi" : 0
							}
, 							{
								"name" : "max6inlet",
								"default" : 								{
									"color" : [ 0.423529, 0.372549, 0.27451, 1.0 ]
								}
,
								"parentstyle" : "",
								"multi" : 0
							}
, 							{
								"name" : "max6message",
								"default" : 								{
									"bgfillcolor" : 									{
										"type" : "gradient",
										"color1" : [ 0.866667, 0.866667, 0.866667, 1.0 ],
										"color2" : [ 0.788235, 0.788235, 0.788235, 1.0 ],
										"color" : [ 0.290196, 0.309804, 0.301961, 1.0 ],
										"angle" : 270.0,
										"proportion" : 0.39,
										"autogradient" : 0
									}
,
									"textcolor_inverse" : [ 0.0, 0.0, 0.0, 1.0 ]
								}
,
								"parentstyle" : "max6box",
								"multi" : 0
							}
, 							{
								"name" : "max6outlet",
								"default" : 								{
									"color" : [ 0.0, 0.454902, 0.498039, 1.0 ]
								}
,
								"parentstyle" : "",
								"multi" : 0
							}
, 							{
								"name" : "newobjBlue-1",
								"default" : 								{
									"accentcolor" : [ 0.317647, 0.654902, 0.976471, 1.0 ]
								}
,
								"parentstyle" : "",
								"multi" : 0
							}
, 							{
								"name" : "newobjYellow-1",
								"default" : 								{
									"fontsize" : [ 12.059008 ],
									"accentcolor" : [ 0.82517, 0.78181, 0.059545, 1.0 ]
								}
,
								"parentstyle" : "",
								"multi" : 0
							}
, 							{
								"name" : "numberGold-1",
								"default" : 								{
									"accentcolor" : [ 0.764706, 0.592157, 0.101961, 1.0 ]
								}
,
								"parentstyle" : "",
								"multi" : 0
							}
 ]
					}
,
					"patching_rect" : [ 92.0, 511.0, 71.0, 22.0 ],
					"saved_object_attributes" : 					{
						"description" : "",
						"digest" : "",
						"globalpatchername" : "",
						"tags" : ""
					}
,
					"text" : "p BlockOne"
				}

			}
 ],
		"lines" : [ 			{
				"patchline" : 				{
					"destination" : [ "obj-12", 0 ],
					"midpoints" : [ 303.166666500000019, 301.416480019562414, 259.5, 301.416480019562414 ],
					"source" : [ "obj-1", 0 ]
				}

			}
, 			{
				"patchline" : 				{
					"destination" : [ "obj-8", 0 ],
					"source" : [ "obj-10", 0 ]
				}

			}
, 			{
				"patchline" : 				{
					"destination" : [ "obj-12", 0 ],
					"midpoints" : [ 375.833333000000039, 260.520061084552481, 259.5, 260.520061084552481 ],
					"source" : [ "obj-106", 0 ]
				}

			}
, 			{
				"patchline" : 				{
					"destination" : [ "obj-12", 0 ],
					"midpoints" : [ 439.333333000000039, 221.837716341018677, 259.5, 221.837716341018677 ],
					"source" : [ "obj-107", 0 ]
				}

			}
, 			{
				"patchline" : 				{
					"destination" : [ "obj-12", 0 ],
					"midpoints" : [ 367.833333000000039, 301.416480019562414, 259.5, 301.416480019562414 ],
					"source" : [ "obj-108", 0 ]
				}

			}
, 			{
				"patchline" : 				{
					"destination" : [ "obj-12", 0 ],
					"midpoints" : [ 423.333333000000039, 301.416480019562414, 259.5, 301.416480019562414 ],
					"source" : [ "obj-109", 0 ]
				}

			}
, 			{
				"patchline" : 				{
					"destination" : [ "obj-53", 0 ],
					"source" : [ "obj-11", 0 ]
				}

			}
, 			{
				"patchline" : 				{
					"destination" : [ "obj-12", 0 ],
					"midpoints" : [ 303.166666500000019, 342.312898954572574, 259.5, 342.312898954572574 ],
					"source" : [ "obj-110", 0 ]
				}

			}
, 			{
				"patchline" : 				{
					"destination" : [ "obj-12", 0 ],
					"midpoints" : [ 428.333333000000039, 260.520061084552481, 259.5, 260.520061084552481 ],
					"source" : [ "obj-111", 0 ]
				}

			}
, 			{
				"patchline" : 				{
					"destination" : [ "obj-12", 0 ],
					"midpoints" : [ 515.166666500000019, 260.520061084552481, 259.5, 260.520061084552481 ],
					"source" : [ "obj-112", 0 ]
				}

			}
, 			{
				"patchline" : 				{
					"destination" : [ "obj-12", 0 ],
					"midpoints" : [ 452.999999500000058, 342.312898954572574, 259.5, 342.312898954572574 ],
					"source" : [ "obj-113", 0 ]
				}

			}
, 			{
				"patchline" : 				{
					"destination" : [ "obj-12", 0 ],
					"midpoints" : [ 367.833333000000039, 342.312898954572574, 259.5, 342.312898954572574 ],
					"source" : [ "obj-114", 0 ]
				}

			}
, 			{
				"patchline" : 				{
					"destination" : [ "obj-12", 0 ],
					"midpoints" : [ 303.166666500000019, 260.520061084552481, 259.5, 260.520061084552481 ],
					"source" : [ "obj-115", 0 ]
				}

			}
, 			{
				"patchline" : 				{
					"destination" : [ "obj-12", 0 ],
					"midpoints" : [ 561.833333000000039, 301.416480019562414, 259.5, 301.416480019562414 ],
					"source" : [ "obj-116", 0 ]
				}

			}
, 			{
				"patchline" : 				{
					"destination" : [ "obj-12", 0 ],
					"midpoints" : [ 499.166666500000019, 221.837716341018677, 259.5, 221.837716341018677 ],
					"source" : [ "obj-117", 0 ]
				}

			}
, 			{
				"patchline" : 				{
					"destination" : [ "obj-12", 0 ],
					"midpoints" : [ 606.833333000000039, 260.520061084552481, 259.5, 260.520061084552481 ],
					"source" : [ "obj-118", 0 ]
				}

			}
, 			{
				"patchline" : 				{
					"destination" : [ "obj-147", 1 ],
					"source" : [ "obj-12", 0 ]
				}

			}
, 			{
				"patchline" : 				{
					"destination" : [ "obj-12", 0 ],
					"midpoints" : [ 303.166666500000019, 380.261108422077541, 259.5, 380.261108422077541 ],
					"source" : [ "obj-120", 0 ]
				}

			}
, 			{
				"patchline" : 				{
					"destination" : [ "obj-12", 0 ],
					"midpoints" : [ 364.833333000000039, 221.837716341018677, 259.5, 221.837716341018677 ],
					"source" : [ "obj-121", 0 ]
				}

			}
, 			{
				"patchline" : 				{
					"destination" : [ "obj-58", 1 ],
					"source" : [ "obj-13", 0 ]
				}

			}
, 			{
				"patchline" : 				{
					"destination" : [ "obj-12", 0 ],
					"midpoints" : [ 487.166666500000019, 301.416480019562414, 259.5, 301.416480019562414 ],
					"source" : [ "obj-140", 0 ]
				}

			}
, 			{
				"patchline" : 				{
					"destination" : [ "obj-14", 1 ],
					"midpoints" : [ 101.5, 462.25, 370.833333000000039, 462.25 ],
					"order" : 0,
					"source" : [ "obj-147", 0 ]
				}

			}
, 			{
				"patchline" : 				{
					"destination" : [ "obj-9", 0 ],
					"order" : 1,
					"source" : [ "obj-147", 0 ]
				}

			}
, 			{
				"patchline" : 				{
					"destination" : [ "obj-59", 0 ],
					"source" : [ "obj-15", 0 ]
				}

			}
, 			{
				"patchline" : 				{
					"destination" : [ "obj-6", 0 ],
					"midpoints" : [ 279.333333000000039, 116.0, 368.083333000000039, 116.0, 368.083333000000039, 38.0, 219.333333000000039, 38.0 ],
					"source" : [ "obj-18", 0 ]
				}

			}
, 			{
				"patchline" : 				{
					"destination" : [ "obj-16", 0 ],
					"source" : [ "obj-19", 0 ]
				}

			}
, 			{
				"patchline" : 				{
					"destination" : [ "obj-12", 0 ],
					"midpoints" : [ 303.166666500000019, 221.837716341018677, 259.5, 221.837716341018677 ],
					"source" : [ "obj-2", 0 ]
				}

			}
, 			{
				"patchline" : 				{
					"destination" : [ "obj-58", 0 ],
					"source" : [ "obj-3", 0 ]
				}

			}
, 			{
				"patchline" : 				{
					"destination" : [ "obj-7", 0 ],
					"source" : [ "obj-5", 0 ]
				}

			}
, 			{
				"patchline" : 				{
					"destination" : [ "obj-13", 0 ],
					"source" : [ "obj-53", 0 ]
				}

			}
, 			{
				"patchline" : 				{
					"destination" : [ "obj-15", 0 ],
					"source" : [ "obj-58", 0 ]
				}

			}
, 			{
				"patchline" : 				{
					"destination" : [ "obj-147", 0 ],
					"source" : [ "obj-59", 1 ]
				}

			}
, 			{
				"patchline" : 				{
					"destination" : [ "obj-18", 1 ],
					"source" : [ "obj-6", 1 ]
				}

			}
, 			{
				"patchline" : 				{
					"destination" : [ "obj-18", 0 ],
					"midpoints" : [ 219.333333000000039, 77.0, 279.333333000000039, 77.0 ],
					"order" : 0,
					"source" : [ "obj-6", 0 ]
				}

			}
, 			{
				"patchline" : 				{
					"destination" : [ "obj-58", 1 ],
					"order" : 1,
					"source" : [ "obj-6", 0 ]
				}

			}
, 			{
				"patchline" : 				{
					"destination" : [ "obj-20", 0 ],
					"source" : [ "obj-8", 1 ]
				}

			}
, 			{
				"patchline" : 				{
					"destination" : [ "obj-5", 0 ],
					"source" : [ "obj-8", 0 ]
				}

			}
, 			{
				"patchline" : 				{
					"destination" : [ "obj-44", 0 ],
					"source" : [ "obj-9", 0 ]
				}

			}
 ],
		"dependency_cache" : [ 			{
				"name" : "Structure_Match_Section.maxpat",
				"bootpath" : "/Volumes/Projects/Composition/Oboe Piece/Final_Patches",
				"patcherrelativepath" : ".",
				"type" : "JSON",
				"implicit" : 1
			}
, 			{
				"name" : "Utility_Multiple_Match.maxpat",
				"bootpath" : "/Volumes/Projects/Composition/Oboe Piece/Final_Patches",
				"patcherrelativepath" : ".",
				"type" : "JSON",
				"implicit" : 1
			}
, 			{
				"name" : "Layers_Remote.maxpat",
				"bootpath" : "/Volumes/Projects/Composition/Oboe Piece/Final_Patches",
				"patcherrelativepath" : ".",
				"type" : "JSON",
				"implicit" : 1
			}
, 			{
				"name" : "Layers_DSP.maxpat",
				"bootpath" : "/Volumes/Projects/Composition/Oboe Piece/Final_Patches",
				"patcherrelativepath" : ".",
				"type" : "JSON",
				"implicit" : 1
			}
, 			{
				"name" : "Output_Layer.maxpat",
				"bootpath" : "/Volumes/Projects/Composition/Oboe Piece/Final_Patches",
				"patcherrelativepath" : ".",
				"type" : "JSON",
				"implicit" : 1
			}
, 			{
				"name" : "Output_Voice.maxpat",
				"bootpath" : "/Volumes/Projects/Composition/Oboe Piece/Final_Patches",
				"patcherrelativepath" : ".",
				"type" : "JSON",
				"implicit" : 1
			}
, 			{
				"name" : "DSP_Stereo_Amp_Pan.maxpat",
				"bootpath" : "/Volumes/Projects/Composition/Oboe Piece/Final_Patches",
				"patcherrelativepath" : ".",
				"type" : "JSON",
				"implicit" : 1
			}
, 			{
				"name" : "DSP_Pan.gendsp",
				"bootpath" : "/Volumes/Projects/Composition/Oboe Piece/Final_Patches",
				"patcherrelativepath" : ".",
				"type" : "gDSP",
				"implicit" : 1
			}
, 			{
				"name" : "Gesture_Volume.maxpat",
				"bootpath" : "/Volumes/Projects/Composition/Oboe Piece/Final_Patches",
				"patcherrelativepath" : ".",
				"type" : "JSON",
				"implicit" : 1
			}
, 			{
				"name" : "Gesture_Generator.maxpat",
				"bootpath" : "/Volumes/Projects/Composition/Oboe Piece/Final_Patches",
				"patcherrelativepath" : ".",
				"type" : "JSON",
				"implicit" : 1
			}
, 			{
				"name" : "Gesture_Signal.maxpat",
				"bootpath" : "/Volumes/Projects/Composition/Oboe Piece/Final_Patches",
				"patcherrelativepath" : ".",
				"type" : "JSON",
				"implicit" : 1
			}
, 			{
				"name" : "Layer_Loader.maxpat",
				"bootpath" : "/Volumes/Projects/Composition/Oboe Piece/Final_Patches",
				"patcherrelativepath" : ".",
				"type" : "JSON",
				"implicit" : 1
			}
, 			{
				"name" : "layers8_blockone.txt",
				"bootpath" : "/Volumes/Projects/Composition/Oboe Piece/Final_Patches",
				"patcherrelativepath" : ".",
				"type" : "TEXT",
				"implicit" : 1
			}
, 			{
				"name" : "Layers_Proxy.maxpat",
				"bootpath" : "/Volumes/Projects/Composition/Oboe Piece/Final_Patches",
				"patcherrelativepath" : ".",
				"type" : "JSON",
				"implicit" : 1
			}
, 			{
				"name" : "Choose_Item.maxpat",
				"bootpath" : "/Volumes/Projects/Composition/Oboe Piece/Final_Patches",
				"patcherrelativepath" : ".",
				"type" : "JSON",
				"implicit" : 1
			}
, 			{
				"name" : "Random_Groups_Change.maxpat",
				"bootpath" : "/Volumes/Projects/Composition/Oboe Piece/Final_Patches",
				"patcherrelativepath" : ".",
				"type" : "JSON",
				"implicit" : 1
			}
, 			{
				"name" : "Random_Decide.maxpat",
				"bootpath" : "/Volumes/Projects/Composition/Oboe Piece/Final_Patches",
				"patcherrelativepath" : ".",
				"type" : "JSON",
				"implicit" : 1
			}
, 			{
				"name" : "Random_Urn.maxpat",
				"bootpath" : "/Volumes/Projects/Composition/Oboe Piece/Final_Patches",
				"patcherrelativepath" : ".",
				"type" : "JSON",
				"implicit" : 1
			}
, 			{
				"name" : "Random_List_Element.maxpat",
				"bootpath" : "/Volumes/Projects/Composition/Oboe Piece/Final_Patches",
				"patcherrelativepath" : ".",
				"type" : "JSON",
				"implicit" : 1
			}
, 			{
				"name" : "Random_Not.maxpat",
				"bootpath" : "/Volumes/Projects/Composition/Oboe Piece/Final_Patches",
				"patcherrelativepath" : ".",
				"type" : "JSON",
				"implicit" : 1
			}
, 			{
				"name" : "Matching_Samples.maxpat",
				"bootpath" : "/Volumes/Projects/Composition/Oboe Piece/Final_Patches",
				"patcherrelativepath" : ".",
				"type" : "JSON",
				"implicit" : 1
			}
, 			{
				"name" : "Structure_Local_Samples.maxpat",
				"bootpath" : "/Volumes/Projects/Composition/Oboe Piece/Final_Patches",
				"patcherrelativepath" : ".",
				"type" : "JSON",
				"implicit" : 1
			}
, 			{
				"name" : "Utility_Unique_List.maxpat",
				"bootpath" : "/Volumes/Projects/Composition/Oboe Piece/Final_Patches",
				"patcherrelativepath" : ".",
				"type" : "JSON",
				"implicit" : 1
			}
, 			{
				"name" : "Test_Cycle_Samples.maxpat",
				"bootpath" : "/Volumes/Projects/Composition/Oboe Piece/Final_Patches",
				"patcherrelativepath" : ".",
				"type" : "JSON",
				"implicit" : 1
			}
, 			{
				"name" : "Analysis_RT.maxpat",
				"bootpath" : "/Volumes/Projects/Composition/Oboe Piece/Final_Patches",
				"patcherrelativepath" : ".",
				"type" : "JSON",
				"implicit" : 1
			}
, 			{
				"name" : "Analysis_FFT_Amplitudes.maxpat",
				"bootpath" : "/Volumes/Projects/Composition/Oboe Piece/Final_Patches",
				"patcherrelativepath" : ".",
				"type" : "JSON",
				"implicit" : 1
			}
, 			{
				"name" : "Analysis_Classifier.maxpat",
				"bootpath" : "/Volumes/Projects/Composition/Oboe Piece/Final_Patches",
				"patcherrelativepath" : ".",
				"type" : "JSON",
				"implicit" : 1
			}
, 			{
				"name" : "Analysis_Classify_PreProcess.maxpat",
				"bootpath" : "/Volumes/Projects/Composition/Oboe Piece/Final_Patches",
				"patcherrelativepath" : ".",
				"type" : "JSON",
				"implicit" : 1
			}
, 			{
				"name" : "Analysis_Spectrum_Reduce.maxpat",
				"bootpath" : "/Volumes/Projects/Composition/Oboe Piece/Final_Patches",
				"patcherrelativepath" : ".",
				"type" : "JSON",
				"implicit" : 1
			}
, 			{
				"name" : "Analysis_Spectral_HPF.maxpat",
				"bootpath" : "/Volumes/Projects/Composition/Oboe Piece/Final_Patches",
				"patcherrelativepath" : ".",
				"type" : "JSON",
				"implicit" : 1
			}
, 			{
				"name" : "Analysis_Pitch_Amp_Deviations.maxpat",
				"bootpath" : "/Volumes/Projects/Composition/Oboe Piece/Final_Patches",
				"patcherrelativepath" : ".",
				"type" : "JSON",
				"implicit" : 1
			}
, 			{
				"name" : "Analysis_Spectral_Peaks.maxpat",
				"bootpath" : "/Volumes/Projects/Composition/Oboe Piece/Final_Patches",
				"patcherrelativepath" : ".",
				"type" : "JSON",
				"implicit" : 1
			}
, 			{
				"name" : "Analysis_Spectral_Shape.maxpat",
				"bootpath" : "/Volumes/Projects/Composition/Oboe Piece/Final_Patches",
				"patcherrelativepath" : ".",
				"type" : "JSON",
				"implicit" : 1
			}
, 			{
				"name" : "Analysis_LoudGate.maxpat",
				"bootpath" : "/Volumes/Projects/Composition/Oboe Piece/Final_Patches",
				"patcherrelativepath" : ".",
				"type" : "JSON",
				"implicit" : 1
			}
, 			{
				"name" : "Utility_Gate_Other.maxpat",
				"bootpath" : "/Volumes/Projects/Composition/Oboe Piece/Final_Patches",
				"patcherrelativepath" : ".",
				"type" : "JSON",
				"implicit" : 1
			}
, 			{
				"name" : "Analysis_Loudness.maxpat",
				"bootpath" : "/Volumes/Projects/Composition/Oboe Piece/Final_Patches",
				"patcherrelativepath" : ".",
				"type" : "JSON",
				"implicit" : 1
			}
, 			{
				"name" : "Analysis_Spectral_Change.maxpat",
				"bootpath" : "/Volumes/Projects/Composition/Oboe Piece/Final_Patches",
				"patcherrelativepath" : ".",
				"type" : "JSON",
				"implicit" : 1
			}
, 			{
				"name" : "Analysis_Novelty.maxpat",
				"bootpath" : "/Volumes/Projects/Composition/Oboe Piece/Final_Patches",
				"patcherrelativepath" : ".",
				"type" : "JSON",
				"implicit" : 1
			}
, 			{
				"name" : "Structure_Multiphonic_Tracking.maxpat",
				"bootpath" : "/Volumes/Projects/Composition/Oboe Piece/Final_Patches",
				"patcherrelativepath" : ".",
				"type" : "JSON",
				"implicit" : 1
			}
, 			{
				"name" : "Control_Analysis_Settings.maxpat",
				"bootpath" : "/Volumes/Projects/Composition/Oboe Piece/Final_Patches",
				"patcherrelativepath" : ".",
				"type" : "JSON",
				"implicit" : 1
			}
, 			{
				"name" : "Control_Loudness_Thresholds.maxpat",
				"bootpath" : "/Volumes/Projects/Composition/Oboe Piece/Final_Patches",
				"patcherrelativepath" : ".",
				"type" : "JSON",
				"implicit" : 1
			}
, 			{
				"name" : "Control_Classifier.maxpat",
				"bootpath" : "/Volumes/Projects/Composition/Oboe Piece/Final_Patches",
				"patcherrelativepath" : ".",
				"type" : "JSON",
				"implicit" : 1
			}
, 			{
				"name" : "Control_Thresholds.maxpat",
				"bootpath" : "/Volumes/Projects/Composition/Oboe Piece/Final_Patches",
				"patcherrelativepath" : ".",
				"type" : "JSON",
				"implicit" : 1
			}
, 			{
				"name" : "Data_All.maxpat",
				"bootpath" : "/Volumes/Projects/Composition/Oboe Piece/Final_Patches",
				"patcherrelativepath" : ".",
				"type" : "JSON",
				"implicit" : 1
			}
, 			{
				"name" : "Data_Filename_Parsing.maxpat",
				"bootpath" : "/Volumes/Projects/Composition/Oboe Piece/Final_Patches",
				"patcherrelativepath" : ".",
				"type" : "JSON",
				"implicit" : 1
			}
, 			{
				"name" : "File_Name_Reduce.maxpat",
				"bootpath" : "/Volumes/Projects/Composition/Oboe Piece/Final_Patches",
				"patcherrelativepath" : ".",
				"type" : "JSON",
				"implicit" : 1
			}
, 			{
				"name" : "Data_Multiphonic_Mapping.maxpat",
				"bootpath" : "/Volumes/Projects/Composition/Oboe Piece/Final_Patches",
				"patcherrelativepath" : ".",
				"type" : "JSON",
				"implicit" : 1
			}
, 			{
				"name" : "Multiphonic_Dict_Array.js",
				"bootpath" : "/Volumes/Projects/Composition/Oboe Piece/Final_Patches",
				"patcherrelativepath" : ".",
				"type" : "TEXT",
				"implicit" : 1
			}
, 			{
				"name" : "Data_SampleType_Lists.maxpat",
				"bootpath" : "/Volumes/Projects/Composition/Oboe Piece/Final_Patches",
				"patcherrelativepath" : ".",
				"type" : "JSON",
				"implicit" : 1
			}
, 			{
				"name" : "Data_From_Disk.maxpat",
				"bootpath" : "/Volumes/Projects/Composition/Oboe Piece/Final_Patches",
				"patcherrelativepath" : ".",
				"type" : "JSON",
				"implicit" : 1
			}
, 			{
				"name" : "Data_Subsection_Lists.maxpat",
				"bootpath" : "/Volumes/Projects/Composition/Oboe Piece/Final_Patches",
				"patcherrelativepath" : ".",
				"type" : "JSON",
				"implicit" : 1
			}
, 			{
				"name" : "Load_Samples.maxpat",
				"bootpath" : "/Volumes/Projects/Composition/Oboe Piece/Final_Patches",
				"patcherrelativepath" : ".",
				"type" : "JSON",
				"implicit" : 1
			}
, 			{
				"name" : "Offline_Timer.maxpat",
				"bootpath" : "/Volumes/Projects/Composition/Oboe Piece/Final_Patches",
				"patcherrelativepath" : ".",
				"type" : "JSON",
				"implicit" : 1
			}
, 			{
				"name" : "dynamicdsp~.mxo",
				"type" : "iLaX"
			}
, 			{
				"name" : "randfloats.mxo",
				"type" : "iLaX"
			}
, 			{
				"name" : "valconvert.mxo",
				"type" : "iLaX"
			}
, 			{
				"name" : "shaping.mxo",
				"type" : "iLaX"
			}
, 			{
				"name" : "gesture_maker.mxo",
				"type" : "iLaX"
			}
, 			{
				"name" : "fl.source~.mxo",
				"type" : "iLaX"
			}
, 			{
				"name" : "fl.source~.mxo",
				"type" : "iLaX"
			}
, 			{
				"name" : "fl.window~.mxo",
				"type" : "iLaX"
			}
, 			{
				"name" : "fl.hypot~.mxo",
				"type" : "iLaX"
			}
, 			{
				"name" : "fl.fft~.mxo",
				"type" : "iLaX"
			}
, 			{
				"name" : "fl.interval~.mxo",
				"type" : "iLaX"
			}
, 			{
				"name" : "fl.interval~.mxo",
				"type" : "iLaX"
			}
, 			{
				"name" : "fl.tomax~.mxo",
				"type" : "iLaX"
			}
, 			{
				"name" : "fl.sum~.mxo",
				"type" : "iLaX"
			}
, 			{
				"name" : "fl.times~.mxo",
				"type" : "iLaX"
			}
, 			{
				"name" : "fl.pack~.mxo",
				"type" : "iLaX"
			}
, 			{
				"name" : "fl.subframe~.mxo",
				"type" : "iLaX"
			}
, 			{
				"name" : "fl.divide~.mxo",
				"type" : "iLaX"
			}
, 			{
				"name" : "fl.framemax~.mxo",
				"type" : "iLaX"
			}
, 			{
				"name" : "fl.medianfilter~.mxo",
				"type" : "iLaX"
			}
, 			{
				"name" : "fl.greaterthan~.mxo",
				"type" : "iLaX"
			}
, 			{
				"name" : "fl.pow~.mxo",
				"type" : "iLaX"
			}
, 			{
				"name" : "fl.ramp~.mxo",
				"type" : "iLaX"
			}
, 			{
				"name" : "fl.once~.mxo",
				"type" : "iLaX"
			}
, 			{
				"name" : "fl.once~.mxo",
				"type" : "iLaX"
			}
, 			{
				"name" : "fl.expr~.mxo",
				"type" : "iLaX"
			}
, 			{
				"name" : "fl.register~.mxo",
				"type" : "iLaX"
			}
, 			{
				"name" : "fl.map~.mxo",
				"type" : "iLaX"
			}
, 			{
				"name" : "fl.frommax~.mxo",
				"type" : "iLaX"
			}
, 			{
				"name" : "fl.samplerate~.mxo",
				"type" : "iLaX"
			}
, 			{
				"name" : "fluid.libmanipulation.mxo",
				"type" : "iLaX"
			}
, 			{
				"name" : "fl.peaks~.mxo",
				"type" : "iLaX"
			}
, 			{
				"name" : "fl.length~.mxo",
				"type" : "iLaX"
			}
, 			{
				"name" : "fl.sortmultiple~.mxo",
				"type" : "iLaX"
			}
, 			{
				"name" : "tracker.mxo",
				"type" : "iLaX"
			}
, 			{
				"name" : "fluid.spectralshape~.mxo",
				"type" : "iLaX"
			}
, 			{
				"name" : "fluid.loudness~.mxo",
				"type" : "iLaX"
			}
, 			{
				"name" : "fl.timemean~.mxo",
				"type" : "iLaX"
			}
, 			{
				"name" : "fl.minus~.mxo",
				"type" : "iLaX"
			}
, 			{
				"name" : "fl.lag~.mxo",
				"type" : "iLaX"
			}
, 			{
				"name" : "fl.max~.mxo",
				"type" : "iLaX"
			}
, 			{
				"name" : "fl.nanfilter~.mxo",
				"type" : "iLaX"
			}
, 			{
				"name" : "fl.log2~.mxo",
				"type" : "iLaX"
			}
, 			{
				"name" : "fluid.noveltyslice~.mxo",
				"type" : "iLaX"
			}
, 			{
				"name" : "fl.contextcontrol~.mxo",
				"type" : "iLaX"
			}
, 			{
				"name" : "recursivefolder.mxo",
				"type" : "iLaX"
			}
 ],
		"autosave" : 0,
		"styles" : [ 			{
				"name" : "max6box",
				"default" : 				{
					"bgcolor" : [ 1.0, 1.0, 1.0, 0.5 ],
					"accentcolor" : [ 0.8, 0.839216, 0.709804, 1.0 ],
					"textcolor_inverse" : [ 0.0, 0.0, 0.0, 1.0 ]
				}
,
				"parentstyle" : "",
				"multi" : 0
			}
, 			{
				"name" : "max6inlet",
				"default" : 				{
					"color" : [ 0.423529, 0.372549, 0.27451, 1.0 ]
				}
,
				"parentstyle" : "",
				"multi" : 0
			}
, 			{
				"name" : "max6message",
				"default" : 				{
					"bgfillcolor" : 					{
						"type" : "gradient",
						"color1" : [ 0.866667, 0.866667, 0.866667, 1.0 ],
						"color2" : [ 0.788235, 0.788235, 0.788235, 1.0 ],
						"color" : [ 0.290196, 0.309804, 0.301961, 1.0 ],
						"angle" : 270.0,
						"proportion" : 0.39,
						"autogradient" : 0
					}
,
					"textcolor_inverse" : [ 0.0, 0.0, 0.0, 1.0 ]
				}
,
				"parentstyle" : "max6box",
				"multi" : 0
			}
, 			{
				"name" : "max6outlet",
				"default" : 				{
					"color" : [ 0.0, 0.454902, 0.498039, 1.0 ]
				}
,
				"parentstyle" : "",
				"multi" : 0
			}
 ]
	}

}
